<svg xmlns="http://www.w3.org/2000/svg" xmlns:xlink="http://www.w3.org/1999/xlink" width="963.754" height="714.144" viewBox="0 0 963.754 714.144">
  <defs>
    <clipPath id="clip-path">
      <path id="Trazado_16" data-name="Trazado 16" d="M920.99,145.58c-47.878.811-95.25-8.563-142.709-14.939s-96.452-9.675-142.632,2.991c-33.356,9.148-65.218,28.186-86.866,55.934-26.22,33.606-25.526,74.227-40.865,112.31-16.42,40.766-44.316,77.491-81.886,100.83-40.859,25.383-87.479,39.281-129.844,61.732-5.484,2.905-10.9,5.943-16.2,9.165-10.269,6.235-21.389,15.9-19.374,27.745,1.219,7.152,7.034,12.555,12.853,16.89a134.625,134.625,0,0,0,41.816,20.99c12.72,3.8,26.216,5.8,37.693,12.466s20.646,19.938,17.265,32.774c-.941,3.574-2.794,6.91-3.249,10.577-.922,7.428,4.028,14.287,9.443,19.453,30.473,29.069,77.415,28.926,117.932,40.411,30.754,8.717,58.916,24.786,89.132,35.22,51.12,17.654,106.419,18.65,160.438,16.056a1288.347,1288.347,0,0,0,181.2-21.663q45.293-8.7,89.884-20.633c13.229-3.54,14.452-4.078,14.452-16.832V91.858C1012.571,131.092,963.7,144.856,920.99,145.58Z" transform="translate(-260.374 -91.858)" fill="none"/>
    </clipPath>
    <linearGradient id="linear-gradient" x1="0.5" x2="0.5" y2="1" gradientUnits="objectBoundingBox">
      <stop offset="0" stop-color="#a2ebff"/>
      <stop offset="0.053" stop-color="#a8ebfb"/>
      <stop offset="0.478" stop-color="#d6f0de"/>
      <stop offset="0.806" stop-color="#f2f2cc"/>
      <stop offset="0.995" stop-color="#fdf4c6"/>
    </linearGradient>
    <linearGradient id="linear-gradient-2" x1="-0.34" x2="-0.34" y2="1" gradientUnits="objectBoundingBox">
      <stop offset="0" stop-color="#fff" stop-opacity="0.2"/>
      <stop offset="0.243" stop-color="#fdfdff" stop-opacity="0.216"/>
      <stop offset="0.467" stop-color="#f6faff" stop-opacity="0.259"/>
      <stop offset="0.683" stop-color="#ecf5ff" stop-opacity="0.333"/>
      <stop offset="0.894" stop-color="#deeeff" stop-opacity="0.435"/>
      <stop offset="1" stop-color="#d6eaff" stop-opacity="0.498"/>
    </linearGradient>
    <linearGradient id="linear-gradient-3" x1="0.5" y1="1" x2="0.5" gradientUnits="objectBoundingBox">
      <stop offset="0" stop-color="#b9e1f9"/>
      <stop offset="1" stop-color="#a2ebd3"/>
    </linearGradient>
    <linearGradient id="linear-gradient-4" x1="0.5" x2="0.5" y2="1" gradientUnits="objectBoundingBox">
      <stop offset="0" stop-color="#fff" stop-opacity="0.702"/>
      <stop offset="0.248" stop-color="#fcfdff" stop-opacity="0.69"/>
      <stop offset="0.478" stop-color="#f6faff" stop-opacity="0.659"/>
      <stop offset="0.699" stop-color="#ebf5ff" stop-opacity="0.604"/>
      <stop offset="0.915" stop-color="#ddedff" stop-opacity="0.533"/>
      <stop offset="1" stop-color="#d6eaff" stop-opacity="0.498"/>
    </linearGradient>
    <linearGradient id="linear-gradient-7" x1="0.5" y1="1" x2="0.5" gradientUnits="objectBoundingBox">
      <stop offset="0.226" stop-color="#01a7c2"/>
      <stop offset="0.419" stop-color="#36b4c6"/>
      <stop offset="0.602" stop-color="#62bec9"/>
      <stop offset="0.766" stop-color="#81c6cb"/>
      <stop offset="0.904" stop-color="#95cbcd"/>
      <stop offset="1" stop-color="#9ccdce"/>
    </linearGradient>
  </defs>
  <g id="Grupo_13852" data-name="Grupo 13852" transform="translate(1160.906 -448)">
    <g id="Grupo_13849" data-name="Grupo 13849" transform="translate(-1161.906 513)">
      <path id="Trazado_1" data-name="Trazado 1" d="M976.337,71.808c-28.721,48.265-91.658,64.826-147.747,61.949S717.844,113.187,661.7,111.684,542.918,130.2,517.816,180.447c-9.923,19.862-13.257,42.076-15.545,63.924-1.934,18.49-6.551,35.827-8.8,53.971-11.744,94.564-98.233,153.243-175.183,195.311-15.605,8.532-31.412,16.7-46.841,25.55-6.689,3.838-13.747,8.054-17.182,14.961-7.839,15.755,8.566,33.941,25.694,37.98,24.859,5.863,54.26-5.125,74.2,15.585,4.607,4.787,8.165,11.035,8.027,17.679-.232,11.153-10.389,18.248-9.263,29.775.934,9.547,7.31,18.827,15.61,23.442,6.7,3.725,14.358,5.28,21.889,6.708,25.639,4.858,79.75,2.6,103.811,13.08,53.182,23.173,77.46,52.542,134.382,65.138a612.333,612.333,0,0,0,156.321,13.76c104.788-4.149,208.818-34.6,298.113-89.861a563.175,563.175,0,0,0,46.625-32.183c16.8-12.9,33.033-26.8,46.238-43.365,35.5-44.53,46.023-105.518,37.073-161.756" transform="translate(-251.247 -136.808)" fill="#00b9be" opacity="0.14"/>
      <g id="Grupo_7" data-name="Grupo 7" transform="translate(13.679 33.749)">
        <g id="Grupo_6" data-name="Grupo 6" clip-path="url(#clip-path)">
          <rect id="Rectángulo_3" data-name="Rectángulo 3" width="857.203" height="624.709" transform="translate(-81.27 -5.563)" fill="url(#linear-gradient)"/>
          <g id="Grupo_2" data-name="Grupo 2" transform="translate(-317.07 74.441)">
            <g id="Grupo_1" data-name="Grupo 1" transform="translate(774.418)">
              <circle id="Elipse_1" data-name="Elipse 1" cx="58.352" cy="58.352" r="58.352" fill="#fff" opacity="0.11"/>
              <circle id="Elipse_2" data-name="Elipse 2" cx="38.714" cy="38.714" r="38.714" transform="translate(19.638 19.638)" fill="#fff" opacity="0.11"/>
              <circle id="Elipse_3" data-name="Elipse 3" cx="23.565" cy="23.565" r="23.565" transform="translate(34.787 34.787)" fill="#fff" opacity="0.11"/>
              <circle id="Elipse_4" data-name="Elipse 4" cx="16.411" cy="16.411" r="16.411" transform="translate(41.94 41.94)" fill="#fff"/>
            </g>
            <path id="Trazado_2" data-name="Trazado 2" d="M868.07,214.034c-16.124-7.088-34.627,1.3-52.23.653-7.474-.274-14.779-2.2-22.19-3.2a90.829,90.829,0,0,0-45.7,5.652c-5.817,2.33-11.426,5.274-17.5,6.812-14.225,3.6-29.16-.855-43.831-.544-8.7.185-17.265,2.052-25.908,3.047-25.558,2.946-51.328-1.751-76.519-6.974-15.6-3.234-27.522-3.563-42.892.183-10.978,2.676-24.923,4.227-36.146,2.382-13.164-2.165-24.612-1.673-37.812.559-3.577.6-8.048,2.962-3.85,6.381a12.666,12.666,0,0,0,7.347,2.523c5.075.2,9.971-1.707,14.993-2.478,10.656-1.633,20.9,1.9,31.335,3.279,9.43,1.246,19.665-3.506,28.782-.517,12.405,4.07,15.97,8.785,29.559,6.026a134.481,134.481,0,0,1,39.921-2.038c17.27,1.708,34.624,6.763,51.7,3.683,6.462-1.166,12.922-3.494,19.421-2.555,7.455,1.077,13.562,6.233,20.266,9.67,12.336,6.324,26.847,6.805,40.648,5.5,15.859-1.5,31.417-4.348,47.4-4.59,21.924-.332,43.538,4.669,65.338,7.039,38.021,4.134,76.405.252,114.453-3.629" transform="translate(194.308 -85.12)" fill="url(#linear-gradient-2)"/>
            <path id="Trazado_3" data-name="Trazado 3" d="M229.005,448.871c16.652-16.342,39.926-23.649,59.867-35.762,19.207-11.666,35.353-27.842,54.478-39.645,28.884-17.827,64.511-25.738,87.866-50.371l1.453,7.854a29.494,29.494,0,0,0,11.639-16c-1.1.278-.793,2.156.278,2.538s2.227-.2,3.2-.784a66.706,66.706,0,0,0,27.043-31.478c1.276-3.1,3.27-6.937,6.6-6.586a6.683,6.683,0,0,1,3.178,1.517c8.879,6.649,13.762,17.4,21.941,24.9A40.042,40.042,0,0,0,527.113,315q2.611-2.3,5.223-4.6c8.494,19.239,32.867,22.473,46.866,36.146,12.739,12.442,30.764,42.072,52.409,27.763,4.854-3.21,8.627-8.6,12.567-13.528,10.088-12.607,30.165-19.5,43.511-28.813a349.423,349.423,0,0,0,45-37.374c3.159-3.106,6.671-6.469,11.091-6.773,2.32-.16,4.691.566,6.954.025,2.7-.645,4.649-2.927,6.4-5.082Q782.7,251.331,808.264,219.9c1.01-1.241,2.626-2.611,4-1.786s-1.471,2.979-1.283,1.392q8.794-12.569,17.59-25.139,2.366-.54,4.73-1.082,2.068,13.76,4.136,27.519c4.158-2.966,10.027-.343,13.781,3.121s7.058,7.936,12,9.216c2.178.562,4.494.438,6.652,1.074,3.723,1.1,6.4,4.255,8.921,7.209a263.1,263.1,0,0,0,27.637,28.223c6.825,5.918,6.962,6.868,13.446,1.267,5.93-5.124,10.69-13.228,15.629-19.337l2.412,8.692a388.385,388.385,0,0,1,24.742-33.444c10.964,12.173,17.672,27.49,24.2,42.52q8.153,18.78,16.309,37.56a102.554,102.554,0,0,0,10.067-14.578c18.881,79.6,37.8,159.327,63.663,236.939" transform="translate(35.263 -97.003)" fill="#b9e1f9" opacity="0.25" style="mix-blend-mode: multiply;isolation: isolate"/>
            <path id="Trazado_4" data-name="Trazado 4" d="M150.693,436.752c24.515-13.574,105.037-45.651,129.933-57.317,4.939-2.314,10.594-4.247,14.915-7.522,3.944-2.989,5.74-6.4,11.175-7.228a15.772,15.772,0,0,0,4.585-.934c1.884-.909,3.062-2.818,4.392-4.452a21.344,21.344,0,0,1,11.574-7.275c2.2-.518,4.508-.683,6.58-1.6,2.831-1.261,4.9-3.775,7.3-5.758,4.275-3.533,9.61-5.378,14.632-7.67,11.628-5.309,20.719-13.067,30.806-20.594,7.538,4.757,12.525,12.32,19.4,17.8,8.044,6.418,19.069,8.026,27.79,13.575a25.548,25.548,0,0,0,5.859,3.154,46.178,46.178,0,0,0,5.533.985c4.275.789,8.18,2.925,11.993,5.051,8.258,4.609,16.186,9.788,24.186,14.836,6.046,3.814,17.3,13.8,24.471,14.233,5.827.355,10.527-10.465,15.122-15.45a93.3,93.3,0,0,1,20.194-16.556c4.134-2.506,8.526-4.735,11.909-8.218,3.276-3.373,5.538-7.856,9.5-10.355,3.856-2.434,8.785-2.616,12.594-5.125,6.018-3.964,8.307-13.065,15.221-14.976,2.447-.677,5.3-.357,7.258-2,1.178-.991,1.777-2.51,2.673-3.774,1.941-2.737,5.159-4.151,8.219-5.439l22.052-9.288c1.432-.6,2.983-1.315,3.664-2.734.978-2.032-.276-4.471.079-6.7.616-3.855,5.272-5.179,9.031-5.927,18.233-3.626,40.827-23.171,50.352-22.5s22.979,24.006,37.048,29.909c23.422,9.825,41.029,30.168,63.148,42.749,12.651,7.194,26.553,11.722,39.978,17.268a286.08,286.08,0,0,1,118.028,91.322c6.039,7.972,11.845,16.714,13.053,26.713,1.725,14.262-6.592,28.315-17.982,36.772s-25.428,12.246-39.261,14.981c-36.873,7.29-74.656,8.29-112.216,7.962-189.461-1.655-379-36.455-567.555-17.5-34.057,3.424-68.512,8.586-102.3,3.047" transform="translate(-35.375 -53.492)" fill="url(#linear-gradient-3)"/>
            <path id="Trazado_5" data-name="Trazado 5" d="M263.166,316.509a315.731,315.731,0,0,0,35.324,1.646c4.748,0,9.445.7,13.981-.534,5.578-1.52,10.375-2.9,16.26-1.845,3.036.545,5.977,1.581,9.035,1.983,4.814.633,9.677-.325,14.456-1.188a387.228,387.228,0,0,1,115.2-3.358c-.444,2.262-3.319,2.914-5.62,3.075q-18.893,1.321-37.837,1.683c-5.95.114-13.09.855-15.775,6.167,6.034,3.964,13.831,3.457,21.044,3.148,33.08-1.419,66.1,4.39,99.2,3.92,30.992-.439,61.705-6.378,92.7-6.881,3.919-.064,8.189.079,11.2,2.585-12.988.411-25.61,4.141-38.411,6.373-25.93,4.523-52.507,2.887-78.751,4.893-19,1.454-37.994,4.826-57,3.42-16.942-1.254-34.077-6.273-50.635-2.478-5.135,1.177-10.173,3.2-15.444,3.129-7.171-.093-8.628-4.582-13.368-8.4-10.544-8.487-26.81-1.611-38.351-.507a26.809,26.809,0,0,1-9.384-.406c-2.838-.749-5.413-2.247-8.164-3.272-12.407-4.622-26.058.864-39.286,1.412-10.534.436-21.234-2.3-31.535-.057" transform="translate(50.977 -16.974)" fill="url(#linear-gradient-4)"/>
            <path id="Trazado_6" data-name="Trazado 6" d="M428.188,441.769q36.012-17.79,70.918-37.7c32.73-18.674,64.659-38.711,96.579-58.743l26.457-16.6c6.588-4.134,13.21-8.293,19.049-13.434,14.494-12.755,24.945-31.929,43.569-37.028a15.09,15.09,0,0,0,9.374,7.556c15.125,4.011,24.732-9.157,32.69-19.729,19.828-26.342,14.8-9.3,34.269,8.431,26.381,24.035,73.185,58.975,93.68,87.218,21.769,30,60.089,44.291,82.69,73.671,18.118,23.552,24.048,53.983,29.457,83.2.576,3.114,1.113,6.512-.385,9.3-2.08,3.876-7.069,4.91-11.427,5.514a2456.086,2456.086,0,0,1-398.4,22.36" transform="translate(171.35 -56.546)" fill="url(#linear-gradient-3)"/>
            <path id="Trazado_7" data-name="Trazado 7" d="M778.089,273.064a80.448,80.448,0,0,0-31.1-1.111c-4.089.66-8.14,1.636-12.274,1.88a88.739,88.739,0,0,1-12.426-.589,163.484,163.484,0,0,0-37.857,1.32c1.751,3.577,6.76,3.414,10.742,3.387a35.466,35.466,0,0,1,19.152,5.513c-.863,2.426-3.811,3.279-6.357,3.644-16.393,2.35-33.3-1.448-49.563,1.655-4.257.813-8.423,2.091-12.712,2.715-6.6.961-13.306.353-19.965.035a311.873,311.873,0,0,0-40.343,1.023c-6.607.542-13.2,1.224-19.788,1.946-5.214.572-10.062-2.557-14.829,1.32a239.6,239.6,0,0,0,45.092,3.371c11.882-.237,23.474-.439,35.328-.719,1.416-.034,3.371.478,3.208,1.885-.1.887-1.062,1.373-1.906,1.668a32.006,32.006,0,0,1-8.583,1.72,5.928,5.928,0,0,0-2.809.594,1.826,1.826,0,0,0-.742,2.471l35.269-1.747c9.477-.47,19.177.279,28.588-.382,8.016-.564,15.157-5.058,23.585-4.413,6.793.52,12.951,4.045,19.52,5.849,7.028,1.929,14.427,1.863,21.714,1.784l64.2-.7" transform="translate(255.101 -43.946)" fill="url(#linear-gradient-4)"/>
            <path id="Trazado_8" data-name="Trazado 8" d="M893.236,357.439c-47.859-25.656-104.262-31.719-158.341-26.8S628.287,350.81,576.085,365.771c-86.094,24.676-173.672,48.933-263.231,49.073,62.093,5.215,120.889,29.194,181.686,42.85,41.645,9.354,84.215,13.851,126.732,17.6,59.778,5.272,120.2,9.084,179.617.64a441.259,441.259,0,0,0,202-83.724" transform="translate(92.551 -4.229)" fill="url(#linear-gradient-7)"/>
            <path id="Trazado_9" data-name="Trazado 9" d="M236.45,381.77c44.109,8.244,94.153-1.705,138.141-10.577,46.428-9.364,94.126-13.153,141.317-9.116,39.638,3.39,78.585,12.245,117.939,18.078,48,7.113,96.957,7.538,145.37,10.062q76.174,3.974,152.347,7.947c11.69.611,23.745,1.311,34.269,6.44,4.366,2.128,8.648,5.368,9.911,10.059,2.052,7.617-4.546,14.659-10.838,19.416-34.486,26.078-77.72,38.2-120.662,43.222-36.474,4.27-77.026,7.682-113.663,4.24-10.953-1.03-21-5.694-31.938-6.8-14.863-1.5-30.36-.148-45.292-.125-62.468.1-124.941-1.2-187.365-3.542-108.04-4.063-217.072-9.349-324.119-25.319-23.237-3.466-47.847-6.64-69.862-15.294" transform="translate(-72.004 17.226)" fill="url(#linear-gradient-7)"/>
          </g>
          <g id="Grupo_5" data-name="Grupo 5" transform="translate(45.501 445.732)">
            <path id="Trazado_10" data-name="Trazado 10" d="M581.912,375.568c.04.1.093.189.133.286.018-.121.025-.244.045-.365Z" transform="translate(-86.192 -343.806)" fill="#0b1d39"/>
            <path id="Trazado_11" data-name="Trazado 11" d="M338.236,400.4c-.005-.027-.012-.054-.018-.079l-.005.047Z" transform="translate(-252.694 -326.84)" fill="#0b1d39"/>
            <path id="Trazado_12" data-name="Trazado 12" d="M375.8,399.936c.115-.158.214-.327.335-.48A2.235,2.235,0,0,0,375.8,399.936Z" transform="translate(-227.011 -327.431)" fill="#0b1d39"/>
            <path id="Trazado_13" data-name="Trazado 13" d="M427.75,400.35l.022-.051C427.739,400.274,427.735,400.318,427.75,400.35Z" transform="translate(-191.525 -326.86)" fill="#0b1d39"/>
            <path id="Trazado_14" data-name="Trazado 14" d="M639.987,365.742a10.648,10.648,0,0,0-.374-1.193Q639.8,365.147,639.987,365.742Z" transform="translate(-46.769 -351.28)" fill="#0b1d39"/>
            <g id="Grupo_4" data-name="Grupo 4">
              <g id="Grupo_3" data-name="Grupo 3">
                <path id="Trazado_15" data-name="Trazado 15" d="M1027.586,407.838c3.574-2.913-10.567-18.2-9-22.475,3.338-9.1-.6-19.043-.742-28.7a77.935,77.935,0,0,1-3.218,10.366c-.457,1.173-1.444,2.582-2.659,2.175-.75-.252-1.074-1.086-1.309-1.824q-.909-2.875-1.821-5.755c.077,3.177.12,6.508-1.378,9.335a40.057,40.057,0,0,1-1.551-7.6q-1.16,4.059-2.32,8.12a42.732,42.732,0,0,1,.6-8.091,62.742,62.742,0,0,1-3.413,10.425c-1.657-2.58-1.521-5.847-1.33-8.89q-1.568,4.658-3.133,9.313c-.3.882-1.049,1.978-1.909,1.586-.506-.23-.644-.86-.7-1.4a24.574,24.574,0,0,1,.327-7.262,20.066,20.066,0,0,0-2.822,10.364,21.749,21.749,0,0,1-2.466-6.916c-.746,3.261-1.549,6.638-3.647,9.285q-.266-4.8-.214-9.606a48.358,48.358,0,0,0-1.569,10.643q-1.151-3.681-2.3-7.361a13.434,13.434,0,0,1-.945,9.195q-.189-2.627-.38-5.257-1.3,3.732-2.594,7.467a12.521,12.521,0,0,1-1.208-7.888,43.7,43.7,0,0,0-3.07,9.909,18.541,18.541,0,0,1,.411-8.772q-2.539,4.989-5.074,9.978a18.138,18.138,0,0,1-.972-8.144,35.945,35.945,0,0,0-2.19,8.3,23.755,23.755,0,0,1-.218-9.433,18.671,18.671,0,0,0-2.625,10.872c-1.458-2.446-1.881-5.334-2.277-8.138a25.574,25.574,0,0,0,.051,9.655,53.193,53.193,0,0,0-5.906-8.756,14.317,14.317,0,0,1,.626,11.358,32.022,32.022,0,0,1-1.145-8.516,25.253,25.253,0,0,0-2.617,9.494,15.225,15.225,0,0,1-.26-7.729,11.227,11.227,0,0,0-1.911,9.392c-1.281,0-1.811-1.572-1.976-2.81q-.437-3.256-.872-6.512a16.647,16.647,0,0,0-.976,7.835l-1.342.035a17.047,17.047,0,0,1-3.846-9.437,11.051,11.051,0,0,1-.893,6.371l-1.112-6.121a29.616,29.616,0,0,1-.37,7.746,11.207,11.207,0,0,1-2.531-9.744,23.778,23.778,0,0,0-2.057,9.835,15.178,15.178,0,0,1-1.773-9.461,15.393,15.393,0,0,0-1.761,10.818,10.449,10.449,0,0,1-4-8.225,34.4,34.4,0,0,0-.831,7.874,12.5,12.5,0,0,1-3.267-6.817q-.4,3.693-.807,7.386a12.846,12.846,0,0,1-1.645-8.785,12.868,12.868,0,0,0-2.623,10.289,8.824,8.824,0,0,1-3.172-4.336q-.109,2.108-.219,4.218a7.5,7.5,0,0,1-3.239-7.3,11.55,11.55,0,0,0-1.388,6.554,16.2,16.2,0,0,1-3.11-9.045,14.3,14.3,0,0,0-1.651,9.289,26.589,26.589,0,0,0-6.463-6.587,11.781,11.781,0,0,1,2.09,7.119,22.5,22.5,0,0,1-4.771-8.766,66.169,66.169,0,0,0-.413,9.732,13.607,13.607,0,0,1-4.471-8.789q-.322,4.024-.646,8.049a10,10,0,0,1-2.362-8.756,11.784,11.784,0,0,0-2.314,9.409,7.852,7.852,0,0,1-2.6-6.347l-.071,5.255a24.684,24.684,0,0,0-6.06-7.215,14.556,14.556,0,0,1,1.742,8.067,5.464,5.464,0,0,1-2.513-2.858,13.8,13.8,0,0,1,.242,4.574,9.424,9.424,0,0,1-3.59-6.414l.4,7.823a20.719,20.719,0,0,1-4.271-6.377,55.49,55.49,0,0,0-.362,9.52q-2.043-5.187-4.088-10.374c.811,3.67,1.049,7.986-1.637,10.687q-.419-2.6-.84-5.206a12.023,12.023,0,0,0-1.748,4.784q.889-4.065,1.779-8.13a35.482,35.482,0,0,0-5.009,8.2c-.968-3.694,1.336-7.386,3.537-10.553a9.335,9.335,0,0,0-4.877,5.4c-.453,1.342-.64,2.879-1.706,3.84a42.368,42.368,0,0,1-.559-7.548c-1.929,1.673-1.088,4.8-2.141,7.1a.773.773,0,0,1-.386.445c-.449.163-.775-.423-.86-.882a19.062,19.062,0,0,1,.081-7.412c-2.039,2.2-1.736,5.721-3.542,8.1a46.588,46.588,0,0,1-1.147-9.335c-2.25,2.653-1.488,6.642-2.836,9.821-.74-.014-.962-.974-.962-1.695q0-3.483,0-6.965c-2.431,1.775-1.006,7.959-3.149,10.055a63.2,63.2,0,0,1,.006-9.728c-1.637,3.151-2.145,6.723-2.629,10.22-1.476-3.651-1.332-7.709-1.169-11.633-2.549,3.141-3,7.376-3.358,11.362-1.726-2.81-2.019-6.213-2.271-9.484-.384,3.123-.773,10.183-1.157,13.306a26.539,26.539,0,0,1-1.7-12.666c-1.98,3.529-2.067,7.733-2.106,11.747-1.287-1.242-1.5-3.171-1.6-4.936q-.186-3.1-.254-6.2c-1.474,4.346-1.464,9.012-1.437,13.584-2.551-4.717-2.492-10.553-5.495-15.007q.369,6.025.242,12.068a15.649,15.649,0,0,1-2.035-6.136q-.948,3.59-1.9,7.177a31.474,31.474,0,0,1-.9-7.16,25.256,25.256,0,0,0-2.649,6.928c-.411-2.881-.777-6.009.72-8.532a35.237,35.237,0,0,0-4.686,8.028l1.5,2.846a20.27,20.27,0,0,1-3.295-11.72,7.207,7.207,0,0,0-2.206,4.6,22.446,22.446,0,0,1-1,5.084c-1.212-.439-1.614-1.889-1.791-3.137a43.628,43.628,0,0,1-.429-6.5c-1.689,2.85-2.216,6.191-2.712,9.443-1.649-2.356-1.529-5.444-1.346-8.3a17.1,17.1,0,0,0-1.464,9.144q-2.158-4.853-4.316-9.7.05,4.387.1,8.776a3.655,3.655,0,0,1-.482,2.281,2.637,2.637,0,0,1-.992-1.761l-1.171-4.659a62,62,0,0,0-1.6,7.437,8.01,8.01,0,0,1-1.549-5.086,17.644,17.644,0,0,1,1.075-5.288,11.879,11.879,0,0,0-2.832,11.027c-.85.146-1.374-.852-1.608-1.661q-1.081-3.74-2.163-7.483a5.787,5.787,0,0,0-.529,3.137q.068,3.359.136,6.715a23.5,23.5,0,0,1-2.755-11.314,9.075,9.075,0,0,0-1.956,5.389,26.786,26.786,0,0,0,.5,5.774c-2.161-2.007-2.672-5.143-2.907-8.045a13.056,13.056,0,0,0-1.366,8.549,8.4,8.4,0,0,1-2.49-5.028q-.481,2.636-.958,5.274a58.558,58.558,0,0,0-3.277-8.514q-.824,4.245-1.647,8.492a9.484,9.484,0,0,1,.38-6.349c-2.314,2.324-4.747,4.877-5.207,8.079a9.079,9.079,0,0,1,1.2-6.217,20.761,20.761,0,0,0-3.932,6.912,35.936,35.936,0,0,1-.138-8.563,7.129,7.129,0,0,0-2.8,4,32.277,32.277,0,0,1-1.612,4.676q-.277-2.861-.339-5.735c-1.387,2.043-.97,4.985-2.669,6.794a17.431,17.431,0,0,1,.2-10.826,11.2,11.2,0,0,0-3.485,5.859,32.6,32.6,0,0,0-.807,6.817q-2.347-4.549-4.694-9.1a50.324,50.324,0,0,1,.811,10.856c-1.842-1.779-1.728-4.664-1.488-7.185a9.946,9.946,0,0,0-2.308,8.055c-1.1-.037-1.575-1.348-1.716-2.407a32.005,32.005,0,0,1-.189-6.64c-2.616,2.954-2.708,7.229-2.663,11.123q-2.545-3.911-4.942-7.916c.772,3,1.551,6.1,1.045,9.16a4.1,4.1,0,0,1-1.734-3.163,32.2,32.2,0,0,0-.344-3.7c-1.74,2.181-2.055,5.1-2.3,7.841a11.251,11.251,0,0,1-1.781-7.8,5.017,5.017,0,0,0-1.828,4.21c-.006,1.582.378,3.147.374,4.729l-3.983-6.1a27.358,27.358,0,0,1,1.332,7.136,18.329,18.329,0,0,1-1.511-3.058l.2-.289c-1.7-2.352-1.325-9.549-.955-11.769a11.685,11.685,0,0,0-2.147,4.834c-.338,1.775-.272,3.6-.462,5.4-.148.234-.291.468-.431.707a18.446,18.446,0,0,1-1.694-5.05l-.5,6.477a21.639,21.639,0,0,0-2.72-6.876,14.19,14.19,0,0,1-1.815,9.161c-1.793-3.269-.392-4.45-.348-8.15a6.235,6.235,0,0,0-1.685,4.058,4.911,4.911,0,0,1-.8,2.423,4.037,4.037,0,0,1-.864-2.547,24.782,24.782,0,0,1,.1-4.906,15.163,15.163,0,0,0-2.789,8.512,9.236,9.236,0,0,1-1.014-7.266c-2.372,2.606-3.669,4.143-3.551,7.626-2.149-3.125-2-4.653-1.214-8.327-2.877,2.775-4.237,4.991-3.523,8.876-1.319-1.425-3.342-.175-2.474-7.52-1.634,2.226-1.366,5.231-1.031,7.951a15.8,15.8,0,0,1-2.063-10.958,7.324,7.324,0,0,0-2,5.8c.077,2.1.622,4.168.73,6.27-1.515-3.842-4.2-9.212-7.62-11.635a15.918,15.918,0,0,1,3.505,10.513,7.3,7.3,0,0,1-2.639-3.55c-.545-1.384-.852-2.846-1.328-4.253a6.292,6.292,0,0,0-.915,4.277,32.191,32.191,0,0,1,.348,4.446c-1.267-.555-1.815-1.99-2.175-3.293a44.167,44.167,0,0,1-.974-4.418c-.7,2.755-.183,5.648.335,8.445a5.132,5.132,0,0,1-2.462-3.686,13.271,13.271,0,0,0-1.346-4.33c-.659,3.308.1,6.713.854,10.008-1.433-3.117-4.8-5-6.577-7.945q.52,3.7,1.041,7.4c.1.689.193,1.376.272,2.066-2.122-1.124-2.791-5.69-3.247-7.992-1.067,1.75-.209,3.962-.175,6a5.526,5.526,0,0,1-1.573-6.625,5.977,5.977,0,0,0-1.419,7.495l1.565,1.649a3.594,3.594,0,0,1-1.872-1.637,11.043,11.043,0,0,1-1.576-7.951c-1.8,2.9-1.673,6.561-1.01,9.9l-.073-.388c-1.685-2.938-1.462-5.8-1.948-9.124-.685.258-1.059,2.929-1.374,3.576q-1.083,2.232-2.169,4.466a11.433,11.433,0,0,1-.289-5.8,13.641,13.641,0,0,0-3.669,7.038,5.055,5.055,0,0,1-1.462-4.875,4.116,4.116,0,0,0-1.952,2.2,11.879,11.879,0,0,0-.671,2.891,9.851,9.851,0,0,1-1.069-5.174c-1.075,1.63-1.141,3.68-1.173,5.617-1.506-2.263-1.2-5.194-.785-7.853a12.107,12.107,0,0,0-3.712,8.2l-4.109-4.912.726,4.566a1.873,1.873,0,0,1-.285,1.7c-.966-1.385-1.846-.862-2.629-2.352a17.259,17.259,0,0,0-.5,4.556,11.625,11.625,0,0,1-1.933-7.687c-2.059,2.068-2.535,5.141-2.911,8-1.212-1.356-.839-3.413-.392-5.152a6.884,6.884,0,0,0-2.419,5.91,9.306,9.306,0,0,1-1.47-6.546,17.657,17.657,0,0,0-3.83,8.506c.832-2.96-1.787-3.133-1.592-6.2a11.393,11.393,0,0,0-3.629,5.253c-.907-.482-.185-2.106-1.01-2.716a10.416,10.416,0,0,1-.836,3.271c-.669-1.984-.187-4.135.3-6.164-1.8,1.659-2.277,4.223-2.663,6.609q-2.013-2.928-4.023-5.857a35.762,35.762,0,0,1-.463,6.217.7.7,0,0,1-.169.411.5.5,0,0,1-.659-.073,1.363,1.363,0,0,1-.3-.642l-1.049-3.8a36.175,36.175,0,0,1-1.817,4.395c-.114.232-.3.5-.559.474-.305-.031-.4-.417-.411-.716a18.876,18.876,0,0,1,.681-5.733,10.262,10.262,0,0,0-3.8,4.828c-.2.545-.417,1.175-.964,1.409a12.231,12.231,0,0,1-.72-4.42,13.343,13.343,0,0,0-2.019,5.231,8.494,8.494,0,0,1,.866-8.841,11.093,11.093,0,0,0-4.985,8.341c-1.059-1.136.12-3.147-.768-4.414q-.918,2.559-1.838,5.119a10.578,10.578,0,0,0-1.6-3.936,2.58,2.58,0,0,1-.394,1.858,38.843,38.843,0,0,1-2.338,3.985l-.02.348c-.281-3.761-.033-3.121.2-6.884a12.858,12.858,0,0,0-3.212,6.121,4.845,4.845,0,0,1-.331-3.233,35.149,35.149,0,0,1,1.063-4.865c-2.09,1.7-4.326,3.635-4.729,6.258-.01.069-.035.155-.138.126l-.573,1.317a46.469,46.469,0,0,0-1.732-4.452,10.288,10.288,0,0,1-2.232,5.53,16.71,16.71,0,0,1,1.488-8.486,10.462,10.462,0,0,0-4.985,7.148,4.594,4.594,0,0,1-.626-3.1l.081-2.141a12.965,12.965,0,0,0-3.348,6.2,9.827,9.827,0,0,1,.283-7.772,7.909,7.909,0,0,0-3.48,5.2c-.187,1.065-.179,2.244-.882,3.08a15.075,15.075,0,0,0-2.5-4.57c-.311,2.431-.9,5.072-2.885,6.577-.783-2.488.75-5.9,1.529-8.38-2.364,1.043-3.609,3.615-4.086,6.1-.059.315-.224.718-.551.675a23.789,23.789,0,0,1,.478-7.977,7.168,7.168,0,0,0-4.048,4.773,11.6,11.6,0,0,1-.819,3.161,13.917,13.917,0,0,1-.661-5.778c-1.142.336-1.5,1.7-1.673,2.85L531.86,446q-1.054-3.047-1.818-6.18c-1.433,1.809-.15,4.568-1.1,6.658a29.577,29.577,0,0,0-3.039-7.955,30.842,30.842,0,0,1-.909,8.3,10.8,10.8,0,0,1-.553-6.754c-1.978,1.641-2.708,4.259-3.336,6.713a6.364,6.364,0,0,1-.864-4.186,35.3,35.3,0,0,0,.352-4.332c-2.277,2-3.444,4.9-4.536,7.685a20.974,20.974,0,0,1-1.151-3.554,5.472,5.472,0,0,1-1.578,3.279,18.456,18.456,0,0,0-.685-4.015,11.13,11.13,0,0,1-4.1,5.731c.028-2.383,1.441-4.229,1.929-6.565a4.183,4.183,0,0,1,1.167-2.46c-1.9,1.687-3.877,3.5-4.566,5.91-.157.547-.514,1.281-1.069,1.094-.378-.128-.455-.608-.459-1a21.729,21.729,0,0,1,.246-3.483c-1.525,1.01-1.893,2.988-2.5,4.68-.081.222-.211.478-.451.5a.5.5,0,0,1-.366-.152,1.879,1.879,0,0,1-.447-1.366,26.469,26.469,0,0,1,.112-3.749q-1.172,2.48-2.348,4.964a2.865,2.865,0,0,1-.4-2.289,27.017,27.017,0,0,1,1.159-5.148,10.146,10.146,0,0,0-2.734,4.029,15.213,15.213,0,0,1-1.462,3.741,12.428,12.428,0,0,1-1.254-3.379q-.7,1.913-1.419,3.814a20.364,20.364,0,0,1-1.368-3.853,18.073,18.073,0,0,1-2.3,4.633l-.053-1.393A30.08,30.08,0,0,1,491,439.565c-2.281,1.222-3.369,3.761-4.572,6.007-.094.179-.228.38-.437.39-.321.012-.433-.413-.421-.726.108-2.927,1.387-5.674,2.647-8.333a19.694,19.694,0,0,0-5.231,7.321,1.585,1.585,0,0,1-.409.667.549.549,0,0,1-.726.006.671.671,0,0,1-.134-.39,6.3,6.3,0,0,1,.1-1.63,24.965,24.965,0,0,1,1.429-5.176c-2.094,1.984-3.186,4.733-4.221,7.392a18.879,18.879,0,0,0-.675-2.212,7.926,7.926,0,0,0-1.4,4.029q-.974-2.12-1.95-4.239a11.188,11.188,0,0,1-1.988,5.579c.189-3.417.789-5.109,1.224-8.968l-2.45,4.676c-.2.39-1.053,1.671-1.439,1.447-.262-.151-.274-.506-.254-.8l.285-4.345a22.4,22.4,0,0,0-3.082,6.211,13.062,13.062,0,0,1,.642-8.5c-2.356,1.86-3.344,4.863-4.214,7.691q-.472-1.523-1-3.029a7.087,7.087,0,0,0-1.185,3.094,9.307,9.307,0,0,1-.549-2.484,3.606,3.606,0,0,1,.384-1.8,14.667,14.667,0,0,0-2.637,6.264c-.14-2.295-.293-5.91-1.537-7.868q-1.016,2.432-2.029,4.865c-.146.35-.421.771-.8.681l.931-3.137a4.434,4.434,0,0,0-2.649,1.706,18.068,18.068,0,0,1-2.1,2.413,6.02,6.02,0,0,1,2.57-6.04,11.315,11.315,0,0,0-5.6,5.172,3.878,3.878,0,0,1-.167-3.1c.305-1.019.813-1.978,1.078-3.009a5.5,5.5,0,0,0-3.354,4.2,6.73,6.73,0,0,1-.435,2.271,15.813,15.813,0,0,0-3.537-8.573,6.9,6.9,0,0,1,.222,4.686c-.293,1.445-.644,2.881-1.049,4.3-1.195-1.283-1.291-3.192-1.136-4.914.136-1.48.407-2.942.677-4.4a19.744,19.744,0,0,0-2.867,7.313c-.065.378-.236.858-.63.846-.431-.014-.541-.583-.518-1q.109-2.028.222-4.056a10.58,10.58,0,0,0-1.466,5.084c-.624-.132-.821-.894-.868-1.513a24.562,24.562,0,0,1,.067-4.485,4.889,4.889,0,0,0-1.474,3.383,23.57,23.57,0,0,1-.368,3.749,18.062,18.062,0,0,1-2.147-11.594c-2.588,2.753-3.444,6.632-3.832,10.348a12.292,12.292,0,0,1-1.116-4.79c-.85.4-1.1,1.439-1.248,2.346q-.233,1.42-.464,2.838a1.838,1.838,0,0,1-.712-1.592,11.8,11.8,0,0,1,.51-4.166c-1.445,1.962-2.913,4.255-2.429,6.626l-.027,3.241c-.254-2.072-1.348-4.1-1.742-6.2a9.476,9.476,0,0,1,.746-5.764,13,13,0,0,0-4.645,6.365,2.234,2.234,0,0,1-.746,1.281,9.959,9.959,0,0,1,1.059-9.018,12.339,12.339,0,0,0-5.062,9.2c-.494-3.015-2.476-5.637-3.106-8.63a19.581,19.581,0,0,1-2.153,9.01,9.951,9.951,0,0,1-.317-4.592,6.116,6.116,0,0,0-1.738,3.458.864.864,0,0,1-.195.529.586.586,0,0,1-.832-.181,1.475,1.475,0,0,1-.148-.921,15.491,15.491,0,0,1,.87-4.188,16.322,16.322,0,0,0-2.332,4.381c-.287-.165-.3-.557-.277-.88a23.325,23.325,0,0,1,1.789-7.272,17.5,17.5,0,0,0-5.591,8.2c-.394-.02-.488-.539-.466-.921l.183-3.224a23.931,23.931,0,0,0-2.137,4.41,10.345,10.345,0,0,1-.443-5.015c-1.445,1.486-2.393,5.448-2.413,7.494q-1.671-2.19-3.346-4.383a2.354,2.354,0,0,1,.043.492q-.053,2.208-.212,4.412l.262,2.653a3.242,3.242,0,0,1-.567-2.246,36.9,36.9,0,0,1,.447-5.349l-.512-.669c.3.053.445.313.518.614a37.164,37.164,0,0,1,1.25-5.341,15.16,15.16,0,0,0-4.757,11.269l.132,1.393a12.44,12.44,0,0,1-.691-7.683,12.645,12.645,0,0,0-2.059,3.7,7.507,7.507,0,0,0-.472,1.452c-.016-.195-.033-.39-.035-.579-.035-2.517.26-5.16,1.712-7.241-1.773,2-3.306,6.233-4.3,8.693a2.153,2.153,0,0,0-.077,2.021l-.4.329c-.7-1.954.266-4.04.791-6.042a14.325,14.325,0,0,0,.169-6.536c-.61.695-.382,1.746-.608,2.631a6.182,6.182,0,0,1-1.212,2.041A15.175,15.175,0,0,0,374.2,448.5c-.439-.3-.425-2.826-.443-3.35-.043-1.447.118-.966.681-2.307-1.789,1.523-3.029,1.59-3.747,3.794a3.429,3.429,0,0,1-.317-2.224,19.278,19.278,0,0,1,1.956-6.67c-1.356,1.1-2.934,6.068-4.066,7.38a9.53,9.53,0,0,0-2.316,4.554c-.764-2.009-.11-4.446-1.332-6.229a10.129,10.129,0,0,1-2.771,5.381,3.567,3.567,0,0,1,.862-3.9,21.473,21.473,0,0,0-4.029,5.495l-.067,3.285a18.9,18.9,0,0,1,2.73-12.06,26.555,26.555,0,0,0-4.227,4.141c-.693.921-1.33,3.273-1.73,5.461a15.7,15.7,0,0,1,2.535-11.309c-3.043,3.48-5.644,9.321-7.8,13.379l-.527.222a23.54,23.54,0,0,1-.992-9.167,12.509,12.509,0,0,0-3.517,8.5c-.909-2.149-1.551-4.436-2.545-6.544-1.25,2.962-2.1,6.117-3.678,8.955a24.068,24.068,0,0,0-1.667-7.317,19.355,19.355,0,0,1-2.417,8.061c.962-1.5-3.352-8.959-4.328-10.149.433,4.129-.165,4.5-2.1,8.191-1.338-3.466-3.958-4.564-7.158-6.577,2.236,3.556,3.094,4.151,1.945,8.156-.594-.98-1.632-2.684-5.143-8.461.006,3.127.12,4.32.126,7.447l-3.739-10.02c-.407,2.509.293,6.973.581,9.5s-.028,3.515-2.165,4.975a1.142,1.142,0,0,1-.744.258,1.228,1.228,0,0,1-.809-.645c-2.163-3.269-2.679-7.7-5.906-10,1.437,3.757,3.082,4.133,1.362,7.768-1.183-3.159-3.009-2.3-5-5.05,2.808,3.891-.144,8.484-4.04,9.443l-10.261,2.517c.033.571.766.77,1.334.8,8.961.581,17.856-.213,26.665,1.929,8.486,2.063,17.709,1.909,26.354.817,3.661-.463,7.288-1.4,10.98-1.279,5.495.183,10.6,2.684,15.914,4.058a135.835,135.835,0,0,0,33.989,4.647c13.531-.018,26.817,2.854,40.027,6.323,43.311,13.9,84.3,37,126.386,55.145l451.769,25.178,7.746-134.811C1032.656,424.023,1024.012,410.749,1027.586,407.838ZM355.863,453.174l.057-.124C356.058,453.511,356,453.5,355.863,453.174Zm25.424-4.143.695.687A1.806,1.806,0,0,1,381.287,449.031Zm325.968-21.31.781-1.147c-.018.675-.022,1.35-.012,2.019A5.575,5.575,0,0,1,707.255,427.721Z" transform="translate(-287.406 -356.666)" fill="#0b1d39"/>
              </g>
            </g>
          </g>
        </g>
      </g>
    </g>
    <g id="Grupo_13851" data-name="Grupo 13851" transform="translate(-675.018 910.502)">
      <g id="Grupo_28" data-name="Grupo 28" transform="translate(0 44.156)">
        <g id="Grupo_10" data-name="Grupo 10" transform="translate(125.51 1.652)">
          <path id="Trazado_32" data-name="Trazado 32" d="M614.279,372.773c-15.941-45.681-15.941-45.681-15.958-45.741-.927-2.489.257-4.205,1.124-5.456a4.272,4.272,0,0,0,1.044-2.382c.011-1.267-.595-1.6-2.479-2.307l-.468-.175,1.031-2.676.442.168c1.742.652,4.372,1.636,4.338,5.02a6.868,6.868,0,0,1-1.552,3.983c-.834,1.207-1.184,1.789-.753,2.953.121.345,15.938,45.668,15.938,45.668Z" transform="translate(-597.542 -314.036)" fill="#0b1d39"/>
        </g>
        <g id="Grupo_11" data-name="Grupo 11" transform="translate(56.621 22.654)">
          <rect id="Rectángulo_4" data-name="Rectángulo 4" width="5.733" height="56.43" transform="matrix(0.945, -0.328, 0.328, 0.945, 0, 1.883)" fill="#0b1d39"/>
        </g>
        <g id="Grupo_14" data-name="Grupo 14" transform="translate(0 38.011)">
          <g id="Grupo_12" data-name="Grupo 12">
            <path id="Trazado_33" data-name="Trazado 33" d="M539.237,339.69a32.959,32.959,0,1,0,36.072,29.518A33,33,0,0,0,539.237,339.69Zm6.65,30.49,18-15.347a27.867,27.867,0,0,1,2.847,4.17Zm21.246-10.4a27.527,27.527,0,0,1,1.6,3.754l-21.726,7.041ZM545.929,369l14.461-17.674a27.951,27.951,0,0,1,2.909,2.859Zm-1.183.067L555.5,348a27.91,27.91,0,0,1,4.215,2.773Zm-.409-1.11,6.6-21.879a27.531,27.531,0,0,1,3.776,1.548Zm-1.066.506,1.873-23.576a27.408,27.408,0,0,1,4.956.95Zm-.807-.862-2.271-22.731a27.854,27.854,0,0,1,4.08-.03Zm-.787.884-7.295-22.508a27.716,27.716,0,0,1,4.944-1.02ZM540.6,368l-10.8-20.127a27.292,27.292,0,0,1,3.755-1.6Zm-.392,1.115-15.346-17.995a27.639,27.639,0,0,1,4.167-2.846Zm-1.178-.038L521.356,354.61a28.079,28.079,0,0,1,2.86-2.909Zm.068,1.181L518.031,359.5a28.12,28.12,0,0,1,2.773-4.217Zm-1.11.411-21.88-6.6a27.617,27.617,0,0,1,1.548-3.777Zm.505,1.064-23.575-1.873a27.426,27.426,0,0,1,.949-4.954Zm-.862.807L514.9,374.807a27.668,27.668,0,0,1-.028-4.08Zm.886.787-22.51,7.3a27.7,27.7,0,0,1-1.02-4.944Zm-.5,1.077L517.9,385.194a27.516,27.516,0,0,1-1.6-3.753Zm1.117.391-17.995,15.346a27.716,27.716,0,0,1-2.846-4.167Zm-.037,1.177-14.463,17.677a27.973,27.973,0,0,1-2.91-2.861Zm1.18-.064-10.754,21.064a27.978,27.978,0,0,1-4.214-2.773Zm.411,1.108-6.6,21.879a27.526,27.526,0,0,1-3.776-1.548Zm1.066-.506-1.873,23.576a27.53,27.53,0,0,1-4.956-.95Zm.806.862,2.272,22.731a27.87,27.87,0,0,1-4.081.03Zm.787-.884,7.295,22.508a27.694,27.694,0,0,1-4.943,1.02Zm1.076.494,10.8,20.129a27.629,27.629,0,0,1-3.754,1.6Zm.394-1.116,15.344,17.995A27.644,27.644,0,0,1,556,396.7ZM546,375.9l17.672,14.463a27.808,27.808,0,0,1-2.86,2.909Zm-.068-1.181L567,385.472a27.81,27.81,0,0,1-2.773,4.215Zm1.11-.411,21.879,6.6a27.842,27.842,0,0,1-1.546,3.776Zm-.506-1.064,23.576,1.873a27.534,27.534,0,0,1-.949,4.955Zm.861-.807,22.731-2.271a27.863,27.863,0,0,1,.03,4.08Zm-.884-.787,22.51-7.295a27.814,27.814,0,0,1,1.018,4.944Z" transform="translate(-509.554 -339.525)" fill="#0b1d39"/>
          </g>
          <g id="Grupo_13" data-name="Grupo 13" transform="translate(27.288 27.289)">
            <path id="Trazado_34" data-name="Trazado 34" d="M540,363.764a5.671,5.671,0,1,1-6.207-5.08A5.67,5.67,0,0,1,540,363.764Z" transform="translate(-528.684 -358.656)" fill="#0b1d39"/>
          </g>
        </g>
        <g id="Grupo_17" data-name="Grupo 17" transform="translate(110.64 26.955)">
          <g id="Grupo_15" data-name="Grupo 15">
            <path id="Trazado_35" data-name="Trazado 35" d="M616.8,331.939a32.958,32.958,0,1,0,36.074,29.518A33,33,0,0,0,616.8,331.939Zm6.652,30.49,18-15.347a27.682,27.682,0,0,1,2.846,4.17Zm21.246-10.4a27.511,27.511,0,0,1,1.6,3.753l-21.725,7.041Zm-21.206,9.225,14.463-17.674a28.071,28.071,0,0,1,2.909,2.859Zm-1.181.067,10.754-21.066a27.89,27.89,0,0,1,4.215,2.773Zm-.411-1.11,6.6-21.879a27.774,27.774,0,0,1,3.777,1.546Zm-1.066.506,1.874-23.576a27.408,27.408,0,0,1,4.955.95Zm-.806-.862-2.271-22.731a27.661,27.661,0,0,1,4.08-.03Zm-.787.884-7.295-22.509a27.792,27.792,0,0,1,4.943-1.018Zm-1.076-.494-10.8-20.129a27.555,27.555,0,0,1,3.756-1.6Zm-.392,1.115-15.347-17.995a27.731,27.731,0,0,1,4.168-2.846Zm-1.178-.04-17.674-14.461a27.913,27.913,0,0,1,2.859-2.909Zm.067,1.183L595.6,351.75a27.89,27.89,0,0,1,2.773-4.217Zm-1.11.411-21.88-6.6a27.837,27.837,0,0,1,1.548-3.777Zm.506,1.064L592.482,362.1a27.511,27.511,0,0,1,.949-4.954Zm-.862.807-22.731,2.271a27.846,27.846,0,0,1-.03-4.08Zm.886.787-22.509,7.3a27.718,27.718,0,0,1-1.02-4.946Zm-.5,1.076-20.127,10.8a27.52,27.52,0,0,1-1.6-3.753Zm1.117.392-17.995,15.346a27.731,27.731,0,0,1-2.846-4.168Zm-.037,1.177L602.2,385.892a27.684,27.684,0,0,1-2.91-2.86Zm1.18-.066-10.754,21.064a27.79,27.79,0,0,1-4.214-2.772Zm.411,1.108-6.6,21.88a27.615,27.615,0,0,1-3.777-1.548Zm1.064-.5-1.873,23.575a27.4,27.4,0,0,1-4.956-.949Zm.807.862,2.271,22.73a27.65,27.65,0,0,1-4.08.029Zm.787-.884,7.295,22.508a27.706,27.706,0,0,1-4.944,1.02Zm1.076.494,10.8,20.127a27.361,27.361,0,0,1-3.754,1.6Zm.392-1.115L637.729,386.1a27.662,27.662,0,0,1-4.168,2.846Zm1.178.038,17.672,14.463a27.791,27.791,0,0,1-2.859,2.908Zm-.067-1.181,21.064,10.754a27.979,27.979,0,0,1-2.772,4.215Zm1.11-.411,21.879,6.6a27.51,27.51,0,0,1-1.548,3.776Zm-.508-1.066,23.576,1.874a27.392,27.392,0,0,1-.949,4.956Zm.863-.806,22.731-2.272a27.679,27.679,0,0,1,.029,4.081Zm-.884-.787,22.508-7.295a27.663,27.663,0,0,1,1.02,4.943Z" transform="translate(-587.117 -331.774)" fill="#0b1d39"/>
          </g>
          <g id="Grupo_16" data-name="Grupo 16" transform="translate(27.289 27.289)">
            <path id="Trazado_36" data-name="Trazado 36" d="M617.563,356.012a5.671,5.671,0,1,1-6.206-5.078A5.673,5.673,0,0,1,617.563,356.012Z" transform="translate(-606.248 -350.905)" fill="#0b1d39"/>
          </g>
        </g>
        <g id="Grupo_18" data-name="Grupo 18" transform="translate(31.527 17.524)">
          <path id="Trazado_37" data-name="Trazado 37" d="M578.131,385.96a1.5,1.5,0,0,1-.33,0l-44.9-5.923a1.435,1.435,0,0,1-.971-2.264l28.764-39.527a1.417,1.417,0,0,1,.9-.566l66.992-12.493a1.434,1.434,0,0,1,1.341,2.355l-50.856,57.941A1.434,1.434,0,0,1,578.131,385.96Zm-42.466-8.453,41.752,5.506,47.618-54.254-62.36,11.628Z" transform="translate(-531.656 -325.163)" fill="#0b1d39"/>
        </g>
        <g id="Grupo_19" data-name="Grupo 19" transform="translate(71.614 69.653)">
          <path id="Trazado_38" data-name="Trazado 38" d="M572.1,367.277a6.185,6.185,0,1,1-6.77-5.539A6.186,6.186,0,0,1,572.1,367.277Z" transform="translate(-559.758 -361.707)" fill="#0b1d39"/>
        </g>
        <g id="Grupo_20" data-name="Grupo 20" transform="translate(55.336 74.408)">
          <path id="Trazado_39" data-name="Trazado 39" d="M549.922,375.236a1.433,1.433,0,0,1-.613-2.779l21.027-7.339a1.434,1.434,0,1,1,.946,2.707l-21.027,7.338A1.543,1.543,0,0,1,549.922,375.236Z" transform="translate(-548.347 -365.041)" fill="#0b1d39"/>
        </g>
        <g id="Grupo_21" data-name="Grupo 21" transform="translate(51.649 80.779)">
          <rect id="Rectángulo_5" data-name="Rectángulo 5" width="9.957" height="3.821" transform="matrix(0.995, -0.099, 0.099, 0.995, 0, 0.99)" fill="#0b1d39"/>
        </g>
        <g id="Grupo_22" data-name="Grupo 22" transform="translate(76.365 70.774)">
          <path id="Trazado_40" data-name="Trazado 40" d="M564.662,368.983a1.433,1.433,0,0,1-.451-2.824l16.363-3.64a1.464,1.464,0,0,1,1.71,1.09,1.435,1.435,0,0,1-1.088,1.71l-16.364,3.639A1.356,1.356,0,0,1,564.662,368.983Z" transform="translate(-563.089 -362.493)" fill="#0b1d39"/>
        </g>
        <g id="Grupo_23" data-name="Grupo 23" transform="translate(89.158 70.221)">
          <rect id="Rectángulo_6" data-name="Rectángulo 6" width="9.957" height="3.82" transform="matrix(1, -0.013, 0.013, 1, 0, 0.134)" fill="#0b1d39"/>
        </g>
        <g id="Grupo_24" data-name="Grupo 24" transform="translate(43.528 21.338)">
          <path id="Trazado_41" data-name="Trazado 41" d="M564.155,328.779c-.369-1.359-22.434-1.4-23.68.886s.193,8.182,7.068,8.663C551.177,338.581,564.891,331.5,564.155,328.779Z" transform="translate(-540.069 -327.837)" fill="#0b1d39"/>
        </g>
        <g id="Grupo_25" data-name="Grupo 25" transform="translate(116.423 0.658)">
          <path id="Trazado_42" data-name="Trazado 42" d="M591.854,329.437l-.683-2.782c9.654-2.368,11.41-5.088,11.717-6.148.271-.941-.127-1.977-1.187-3.074-.6-.621-4.4-1.205-7.974-1.227l.017-2.867c1.886.013,8.181.2,10.018,2.1,2.272,2.355,2.275,4.489,1.877,5.863C604.644,324.748,600.135,327.407,591.854,329.437Z" transform="translate(-591.171 -313.339)" fill="#0b1d39"/>
        </g>
        <g id="Grupo_26" data-name="Grupo 26" transform="translate(115.204 10.942)">
          <rect id="Rectángulo_7" data-name="Rectángulo 7" width="7.46" height="3.823" transform="translate(0 2.728) rotate(-21.453)" fill="#0b1d39"/>
        </g>
        <g id="Grupo_27" data-name="Grupo 27" transform="translate(114.672 0)">
          <rect id="Rectángulo_8" data-name="Rectángulo 8" width="7.46" height="3.822" transform="translate(0 0.155) rotate(-1.189)" fill="#0b1d39"/>
        </g>
      </g>
      <g id="Grupo_29" data-name="Grupo 29" transform="translate(34.59)">
        <path id="Trazado_43" data-name="Trazado 43" d="M628.112,335.511a12.715,12.715,0,0,0-3.469-.165c-.726.208-5.286,3.693-6.064,4.177-2.6.8-12.78-5.991-15.9-6.614a3.209,3.209,0,0,1-1.6-.625c-.541-.5-.717-1.368-1.384-1.678a1.159,1.159,0,0,1-.23-.117c-.25-.2-.15-.593,0-.874s.325-.619.167-.894a1.057,1.057,0,0,0-.365-.31,2.663,2.663,0,0,1-1.164-1.822c-.1-.709.087-1.439-.034-2.145-.217-1.265-1.3-2.108-1.8-3.239-.529-1.181-.959-2.365-1.593-3.526a23.521,23.521,0,0,0-5.247-6.821l-.462-1.254a6.207,6.207,0,0,1,2.294-.081l-.723-1.819s3.9-.612,4.341-.583c.822.054,2.237,1.252,3.683,1.519.625.114.869-.258,1.086-.75q.391-.89.742-1.8a.572.572,0,0,0,.054-.247c-.013-.155-.154-.3-.1-.449a.38.38,0,0,1,.176-.168c.144-.086.715-.245.643-.495-.021-.07-.091-.114-.13-.177-.155-.253.382-.689.484-.9-.514-.024-.441-.708-.167-.971a1.5,1.5,0,0,1,.638-.294,3.194,3.194,0,0,0,1.8-.9c.575-.819-.84-2.017-1.078-3.121a4.086,4.086,0,0,1,.224-2.709,16.444,16.444,0,0,0,2.244.21c.331-.071.881-1.81,1.378-2.726s-1.809-5.162-3.02-7.562-8.731-4.014-11.186-3.6-7.943,1.251-8.289,1.789c-.334.518,1.13.819.778,1.508a7.167,7.167,0,0,1-.836.525,5.953,5.953,0,0,0-.845.842,3.52,3.52,0,0,0-.94,2.04.653.653,0,0,0,.094.438.748.748,0,0,0,.536.211l2.861.312a32.8,32.8,0,0,0-.621,5.274,2.288,2.288,0,0,0,.161,1.145c.23.445.718.7.981,1.13.553.889-.171,1.449-1.165,1.8l-.445-1.208a7.34,7.34,0,0,1-6.044,1.612c-2.167-.271-4.292-.991-6.475-.913a16.793,16.793,0,0,0-5.151,1.271,131.954,131.954,0,0,0-16.012,7.184,37.72,37.72,0,0,0-4.235,2.528,44.009,44.009,0,0,0-5.244,4.649c-2.7,2.667-6.556,5.97-7.646,9.734,3.142.371,1.183,3.419,1.28,5.469q-.165,2.9-.108,5.813a13.213,13.213,0,0,0,.864,5.2,14.462,14.462,0,0,0,3.516,4.325,18.283,18.283,0,0,0,5.629,4.107c.961.377,1.979.588,2.966.893.235.073.462.171.695.252a118.977,118.977,0,0,1,9.39,7.489,5.267,5.267,0,0,1-.414,1.663c-.372.816-.529,1.6-.829,2.462a33.392,33.392,0,0,1-2.638,5.025c-1.164,2.1-2.55,4.379-3.033,6.763-.83,4.114-1.409,8.288-2.067,12.432-.495,3.117-.469,11.7-4.445,12.489a3.679,3.679,0,0,0-1.023.251c-1,.531-.732,2.018-.29,3.058A4.84,4.84,0,0,0,545.066,404a6.835,6.835,0,0,0,2.727.555,9.758,9.758,0,0,1,5.7,2.707,2.06,2.06,0,0,0,.807.588,1.862,1.862,0,0,0,.779,0q2.29-.319,4.578-.636a6.724,6.724,0,0,0,2.3-.606,2.282,2.282,0,0,0,1.284-1.887c-1.747.088-3.335-.927-4.787-1.9a14.957,14.957,0,0,1-3.8-3.225c-2.679-3.57.477-7.78,2.03-11.115,2.75-5.91,5.585-11.982,7.9-18.066.427-1.173,2.583-5.087,3.475-5.62a4.532,4.532,0,0,0,1.505-1.646,15.08,15.08,0,0,0,1.486-3.73c.759-2.6-.425-5.118-1.62-7.313-.2-.369-2.961-4.348-3.168-4.716l11.611,3.54c3.659.213,7.124.63,7.124.63a4.9,4.9,0,0,1,.673,2.357c-.086,1.07-2.881,9.579-2.675,13.048.257,4.286.725,8.554,1.2,12.821.214,1.931.355,3.887.7,5.8.264,1.479.95,3.231.275,4.7-.384.834-.974,1.558-1.384,2.381a4.8,4.8,0,0,0-.29,3.837,3.336,3.336,0,0,0,3.034,2.157c1.478-.037,2.719-1.21,4.188-1.364a6.984,6.984,0,0,1,2.235.281c2.727.609,9.165-.173,9.671-2.081.174-.65-1.09-1.847-1.666-2.2a5.794,5.794,0,0,0-1.914-.616c-2.388-.478-4.851-1.08-6.744-2.612a2.966,2.966,0,0,1-.894-1.048,3.454,3.454,0,0,1-.224-1.267c-.207-4.843,1.533-9.837,2.074-14.638.622-5.527,1.575-11.171,2.709-16.627.19-.914.288-2.4.91-3.162,1.518-1.852.635-5.549-.066-7.6-.873-2.565-3.289-3.946-5.529-5.055a40.85,40.85,0,0,0-5.057-2.2c-2.312-.776-21.124-7.506-21.124-7.506a2.851,2.851,0,0,1,1.171-2.866c3.724-2.317,8.612-.7,12.45-2.763,1.339-.719,2.5-2.707,4.137-2.762.5-.016,1.693,2.05,1.944,2.386,1.371,1.842,2.827,3.616,4.141,5.5a3.22,3.22,0,0,1,.511.956c.164.582.089,1.352.625,1.633.375.2.981.1,1.108.5.312.987.5.909,1.338,1.385a8.4,8.4,0,0,1,1.99,2.308c.745.993,1.886,2.951,2.432,3.242s19.638,3.16,21.468,4.074,5.229-1.969,5.229-1.969,1.83.6,2.071,1.451.759.827.759.827l1.83-1.829,1.4-3.8S628.665,335.615,628.112,335.511Z" transform="translate(-533.803 -281.923)" fill="#0b1d39"/>
      </g>
      <g id="Grupo_30" data-name="Grupo 30" transform="translate(79.664 33.22)">
        <path id="Trazado_44" data-name="Trazado 44" d="M565.4,312.064c4.4,3.142,8.81,6.288,12.941,9.777,1.87,1.58,3.777,3.281,6.147,3.894a13.092,13.092,0,0,0,4.047.241c4.549-.267,15.4-3.228,16.437-3.543,1.056-.321,2.09.434,3.164.265a3.82,3.82,0,0,0,1.074-.4q1.508-.742,3.014-1.491a3.215,3.215,0,0,0-2.686-.9c.194-.723.479-2.167,1.255-2.533.8-.379,1.947.528,2.672.812.247.1.606.13.7-.117.066-.178-.073-.362-.2-.5-.686-.747-1.308-1.73-2.331-2.01-1.088-.3-1.893.445-2.949.4-.984-.039-1.907-.621-2.954-.586a3.084,3.084,0,0,0-2.589,1.342c-.258.436-.391.986-.814,1.265a1.946,1.946,0,0,1-.813.241q-5.12.717-10.29,1.014c-2.394.138-5.064.113-6.826-1.513a12.439,12.439,0,0,1-1.168-1.352c-3.391-4.208-8.42-6.874-11.72-11.155" transform="translate(-565.402 -305.211)" fill="#0b1d39"/>
      </g>
    </g>
    <g id="Grupo_13850" data-name="Grupo 13850" transform="translate(-879.931 937.966)">
      <g id="Grupo_50" data-name="Grupo 50" transform="translate(0 43.161)">
        <g id="Grupo_32" data-name="Grupo 32" transform="translate(127.757 1.927)">
          <path id="Trazado_45" data-name="Trazado 45" d="M470.132,392c-14.252-46.187-14.252-46.187-14.266-46.249-.836-2.518.409-4.188,1.321-5.4A4.261,4.261,0,0,0,458.315,338c.058-1.265-.535-1.622-2.391-2.394l-.459-.193,1.125-2.633.435.183c1.716.716,4.307,1.794,4.148,5.171a6.862,6.862,0,0,1-1.695,3.92c-.876,1.174-1.247,1.742-.859,2.921.108.347,14.249,46.173,14.249,46.173Z" transform="translate(-455.465 -332.785)" fill="#0b1d39"/>
        </g>
        <g id="Grupo_33" data-name="Grupo 33" transform="translate(58.242 20.546)">
          <rect id="Rectángulo_9" data-name="Rectángulo 9" width="5.727" height="56.376" transform="matrix(0.956, -0.294, 0.294, 0.956, 0, 1.682)" fill="#0b1d39"/>
        </g>
        <g id="Grupo_36" data-name="Grupo 36" transform="translate(0 34.799)">
          <g id="Grupo_34" data-name="Grupo 34">
            <path id="Trazado_46" data-name="Trazado 46" d="M396.753,355.9a32.927,32.927,0,1,0,34.938,30.783A32.966,32.966,0,0,0,396.753,355.9Zm5.53,30.683,18.524-14.667a27.63,27.63,0,0,1,2.692,4.265Zm21.589-9.613a27.4,27.4,0,0,1,1.458,3.806l-21.946,6.238ZM402.366,385.4l15.082-17.119a27.912,27.912,0,0,1,2.8,2.961Zm-1.183.024,11.5-20.639a27.714,27.714,0,0,1,4.107,2.921Zm-.369-1.123,7.389-21.6a27.827,27.827,0,0,1,3.714,1.682Zm-1.081.466,2.729-23.469a27.286,27.286,0,0,1,4.913,1.128Zm-.775-.889-1.439-22.778a27.606,27.606,0,0,1,4.074.12Zm-.819.853L391.676,362a27.646,27.646,0,0,1,4.973-.837Zm-1.056-.532-10.045-20.488a27.359,27.359,0,0,1,3.807-1.459Zm-.432,1.1L381.985,366.78a27.806,27.806,0,0,1,4.265-2.69Zm-1.175-.081-17.117-15.083a28.036,28.036,0,0,1,2.96-2.8Zm.026,1.183-20.641-11.5a27.846,27.846,0,0,1,2.921-4.11Zm-1.123.368-21.605-7.388a27.664,27.664,0,0,1,1.683-3.714Zm.465,1.083-23.469-2.729a27.422,27.422,0,0,1,1.128-4.913Zm-.889.773-22.776,1.441a27.828,27.828,0,0,1,.118-4.075Zm.854.819-22.738,6.465a27.785,27.785,0,0,1-.839-4.974Zm-.535,1.057-20.487,10.044a27.389,27.389,0,0,1-1.458-3.8Zm1.1.431L376.853,405.6a27.611,27.611,0,0,1-2.689-4.264Zm-.081,1.174-15.083,17.12a27.892,27.892,0,0,1-2.8-2.961Zm1.181-.023-11.5,20.639a27.886,27.886,0,0,1-4.105-2.921Zm.369,1.123-7.389,21.6a27.647,27.647,0,0,1-3.714-1.683Zm1.081-.466L395.2,416.212a27.427,27.427,0,0,1-4.913-1.128Zm.775.89,1.439,22.776a27.589,27.589,0,0,1-4.074-.12Zm.819-.854,6.462,22.738a27.73,27.73,0,0,1-4.971.837Zm1.056.532L410.623,413.8a27.594,27.594,0,0,1-3.807,1.459Zm.432-1.1,14.665,18.524a27.661,27.661,0,0,1-4.265,2.69Zm1.175.081L419.3,407.375a27.9,27.9,0,0,1-2.961,2.8Zm-.026-1.183,20.641,11.5a27.925,27.925,0,0,1-2.923,4.108Zm1.124-.368,21.6,7.389a27.569,27.569,0,0,1-1.682,3.713Zm-.468-1.083,23.471,2.729a27.576,27.576,0,0,1-1.128,4.914Zm.89-.773,22.776-1.441a27.8,27.8,0,0,1-.118,4.074Zm-.854-.819,22.738-6.463a27.741,27.741,0,0,1,.839,4.973Z" transform="translate(-365.902 -355.829)" fill="#0b1d39"/>
          </g>
          <g id="Grupo_35" data-name="Grupo 35" transform="translate(27.262 27.262)">
            <path id="Trazado_47" data-name="Trazado 47" d="M396.334,380.249a5.666,5.666,0,1,1-6.011-5.3A5.666,5.666,0,0,1,396.334,380.249Z" transform="translate(-385.014 -374.941)" fill="#0b1d39"/>
          </g>
        </g>
        <g id="Grupo_39" data-name="Grupo 39" transform="translate(110.864 27.789)">
          <g id="Grupo_37" data-name="Grupo 37">
            <path id="Trazado_48" data-name="Trazado 48" d="M474.473,350.982a32.927,32.927,0,1,0,34.938,30.783A32.965,32.965,0,0,0,474.473,350.982ZM480,381.665,498.527,367a27.559,27.559,0,0,1,2.692,4.265Zm21.589-9.613a27.41,27.41,0,0,1,1.458,3.806L481.1,382.1Zm-21.507,8.438,15.082-17.119a27.9,27.9,0,0,1,2.8,2.961Zm-1.183.023,11.5-20.639a27.835,27.835,0,0,1,4.107,2.923Zm-.369-1.123,7.389-21.6a27.658,27.658,0,0,1,3.714,1.682Zm-1.081.468,2.729-23.469a27.4,27.4,0,0,1,4.913,1.127Zm-.775-.89-1.439-22.776a27.6,27.6,0,0,1,4.074.12Zm-.819.854L469.4,357.084a27.765,27.765,0,0,1,4.973-.839Zm-1.056-.532L464.759,358.8a27.358,27.358,0,0,1,3.807-1.459Zm-.432,1.1-14.667-18.524a27.8,27.8,0,0,1,4.265-2.69Zm-1.175-.083-17.117-15.082a28.032,28.032,0,0,1,2.96-2.8Zm.026,1.183-20.641-11.5a27.91,27.91,0,0,1,2.921-4.108Zm-1.123.369-21.605-7.388a27.656,27.656,0,0,1,1.683-3.714Zm.465,1.081L449.1,380.211a27.408,27.408,0,0,1,1.128-4.911Zm-.889.775L448.9,385.154a27.8,27.8,0,0,1,.118-4.074Zm.854.819L449.793,391a27.787,27.787,0,0,1-.839-4.974ZM472,385.591l-20.487,10.044a27.326,27.326,0,0,1-1.458-3.806Zm1.1.431-18.525,14.665a27.6,27.6,0,0,1-2.689-4.264Zm-.081,1.174-15.083,17.12a27.781,27.781,0,0,1-2.8-2.963Zm1.181-.023-11.5,20.639a27.874,27.874,0,0,1-4.105-2.921Zm.369,1.123-7.389,21.6a27.661,27.661,0,0,1-3.714-1.683Zm1.081-.468L472.92,411.3a27.434,27.434,0,0,1-4.913-1.128Zm.775.89,1.439,22.776a27.8,27.8,0,0,1-4.074-.118Zm.819-.854L483.7,410.6a27.847,27.847,0,0,1-4.971.837Zm1.056.534,10.045,20.488a27.6,27.6,0,0,1-3.807,1.459Zm.432-1.1L493.4,405.821a27.548,27.548,0,0,1-4.265,2.689Zm1.175.081,17.116,15.083a27.909,27.909,0,0,1-2.96,2.8Zm-.026-1.182,20.641,11.5a27.918,27.918,0,0,1-2.923,4.108Zm1.124-.369,21.6,7.39a27.7,27.7,0,0,1-1.682,3.713Zm-.468-1.081,23.469,2.729a27.4,27.4,0,0,1-1.127,4.913Zm.89-.775,22.776-1.439a27.809,27.809,0,0,1-.118,4.074Zm-.854-.817,22.738-6.463a27.721,27.721,0,0,1,.839,4.973Z" transform="translate(-443.622 -350.915)" fill="#0b1d39"/>
          </g>
          <g id="Grupo_38" data-name="Grupo 38" transform="translate(27.262 27.262)">
            <path id="Trazado_49" data-name="Trazado 49" d="M474.054,375.335a5.666,5.666,0,1,1-6.011-5.3A5.666,5.666,0,0,1,474.054,375.335Z" transform="translate(-462.734 -370.027)" fill="#0b1d39"/>
          </g>
        </g>
        <g id="Grupo_40" data-name="Grupo 40" transform="translate(31.497 17.852)">
          <path id="Trazado_50" data-name="Trazado 50" d="M434.117,402.8a1.508,1.508,0,0,1-.329-.017l-44.612-7.549a1.433,1.433,0,0,1-.887-2.3l30.157-38.416a1.425,1.425,0,0,1,.914-.532l67.34-10.032a1.431,1.431,0,0,1,1.251,2.4l-52.883,56A1.429,1.429,0,0,1,434.117,402.8Zm-42.09-9.987,41.484,7.018L483.028,347.4l-62.681,9.339Z" transform="translate(-387.983 -343.949)" fill="#0b1d39"/>
        </g>
        <g id="Grupo_41" data-name="Grupo 41" transform="translate(71.338 68.039)">
          <path id="Trazado_51" data-name="Trazado 51" d="M428.259,384.92a6.179,6.179,0,1,1-6.556-5.776A6.179,6.179,0,0,1,428.259,384.92Z" transform="translate(-415.913 -379.132)" fill="#0b1d39"/>
        </g>
        <g id="Grupo_42" data-name="Grupo 42" transform="translate(54.823 72.789)">
          <path id="Trazado_52" data-name="Trazado 52" d="M405.857,391.881a1.432,1.432,0,0,1-.512-2.8l21.261-6.56a1.432,1.432,0,1,1,.846,2.736l-21.261,6.56A1.448,1.448,0,0,1,405.857,391.881Z" transform="translate(-404.335 -382.462)" fill="#0b1d39"/>
        </g>
        <g id="Grupo_43" data-name="Grupo 43" transform="translate(51.194 78.559)">
          <rect id="Rectángulo_10" data-name="Rectángulo 10" width="9.948" height="3.817" transform="translate(0 0.628) rotate(-3.618)" fill="#0b1d39"/>
        </g>
        <g id="Grupo_44" data-name="Grupo 44" transform="translate(76.078 72.83)">
          <path id="Trazado_53" data-name="Trazado 53" d="M420.168,385.264a1.432,1.432,0,0,1,.836-2.733l16.283,3.918a1.462,1.462,0,0,1,1.056,1.729,1.431,1.431,0,0,1-1.727,1.056l-16.283-3.918C420.276,385.3,420.222,385.284,420.168,385.264Z" transform="translate(-419.236 -382.491)" fill="#0b1d39"/>
        </g>
        <g id="Grupo_45" data-name="Grupo 45" transform="translate(88.72 75.201)">
          <rect id="Rectángulo_11" data-name="Rectángulo 11" width="3.817" height="9.947" transform="translate(0 3.815) rotate(-88.513)" fill="#0b1d39"/>
        </g>
        <g id="Grupo_46" data-name="Grupo 46" transform="translate(45.15 19.018)">
          <path id="Trazado_54" data-name="Trazado 54" d="M421.7,346.124c-.318-1.371-22.345-2.211-23.673.021s-.106,8.176,6.741,8.907C408.389,355.439,422.34,348.864,421.7,346.124Z" transform="translate(-397.554 -344.766)" fill="#0b1d39"/>
        </g>
        <g id="Grupo_47" data-name="Grupo 47" transform="translate(118.332 0.661)">
          <path id="Trazado_55" data-name="Trazado 55" d="M449.439,347.9l-.581-2.8c9.724-2.011,11.576-4.663,11.921-5.71.305-.931-.054-1.979-1.074-3.113-.576-.642-4.349-1.364-7.915-1.515l.123-2.861c1.882.08,8.159.5,9.925,2.463,2.181,2.433,2.107,4.563,1.659,5.921C462.378,343.682,457.779,346.174,449.439,347.9Z" transform="translate(-448.858 -331.897)" fill="#0b1d39"/>
        </g>
        <g id="Grupo_48" data-name="Grupo 48" transform="translate(117.126 11.042)">
          <rect id="Rectángulo_12" data-name="Rectángulo 12" width="7.453" height="3.819" transform="translate(0 2.471) rotate(-19.364)" fill="#0b1d39"/>
        </g>
        <g id="Grupo_49" data-name="Grupo 49" transform="translate(117.027 0)">
          <rect id="Rectángulo_13" data-name="Rectángulo 13" width="3.818" height="7.453" transform="translate(0 3.818) rotate(-89.1)" fill="#0b1d39"/>
        </g>
      </g>
      <g id="Grupo_51" data-name="Grupo 51" transform="translate(45.107 0)">
        <path id="Trazado_56" data-name="Trazado 56" d="M405.084,329.845l-2.128,3.027c-2.054,2.923-4.148,5.928-5.038,9.389s-.33,7.526,2.309,9.934a33.747,33.747,0,0,0,2.79,2.023,18.632,18.632,0,0,1,4.506,5.217c1.207,1.866,3.17,3.395,4.629,5.092a67.592,67.592,0,0,1,8.108,11.8.986.986,0,0,1-.292,1.515c-2.988,2.635-6.065,5.11-8.291,8.467-2.237,3.375-3.358,7.343-4.83,11.115a13,13,0,0,1-2.154,4.185c-.936.98-2.147.99-3.3,1.581a2.569,2.569,0,0,0-1.242,2.941,4.908,4.908,0,0,0,1.252,1.83,13.881,13.881,0,0,0,2.01,1.853c1.223.864,2.682,1.337,3.944,2.143,1.736,1.107,3.128,2.852,5.117,3.385,1.786.481,3.666-.125,5.4-.772.515-.191,1.087-.448,1.257-.97.277-.85-.683-1.541-1.464-1.977a17.761,17.761,0,0,1-5.817-5.375c-.663-.941-1.583-1.9-1.3-3.1.3-1.268,1.936-2.473,2.737-3.452,1.1-1.344,2.231-2.669,3.214-4.105,1.391-2.034,9.106-11.872,11.623-14.2,2.331-1.049,3.428-2.91,3.3-5.921a9.2,9.2,0,0,0-1.521-5.139c-2.906-5.559-4.694-12.794-6.7-18.738" transform="translate(-397.524 -288.95)" fill="#0b1d39"/>
        <path id="Trazado_57" data-name="Trazado 57" d="M406.424,331.157a27.194,27.194,0,0,0-4.04,5.4,10.714,10.714,0,0,0-1.319,6.512,15.1,15.1,0,0,0,1.535,4.269q1.23,2.521,2.6,4.97c1.87,3.337,6.687,4.756,9.861,6.338,6.693,3.338,11.439,7.79,17.065,12.541,2.1,1.77,1.362,3.764.924,6.242a35.6,35.6,0,0,0-.5,7.982c.05,3.864,1.3,7.6,2.162,11.362.3,1.28,1.144,3.943.369,5.151s-2.425.993-1.174,3.031A10.562,10.562,0,0,0,435.541,407a2.355,2.355,0,0,0,.716.522,2.646,2.646,0,0,0,1.054.125q3.278-.053,6.555-.081a26.427,26.427,0,0,1,4.94.622,3.54,3.54,0,0,0,3.439-1.288c.528-.623,1.563-2.318.083-2.466-1.566-.156-3.141-1.2-4.7-1.575-1.8-.431-3.459-1.305-5.3-1.61-2.682-.445-.145-21.05.822-25.926.869-4.374,2.04-8.891-2.087-12.028-4.4-4.054-15.6-19.264-27.528-27.3" transform="translate(-396.055 -288.391)" fill="#0b1d39"/>
        <path id="Trazado_58" data-name="Trazado 58" d="M437.289,329.272A19.181,19.181,0,0,0,441.8,325.6c1.3-1.445,2.635-3.227,4.576-3.355-1.692-1.937-3.041-4.713-5.04-6.326a12.87,12.87,0,0,1-2.134-1.588,15.265,15.265,0,0,0-1.966-2.274.825.825,0,0,0-.5-.218,1,1,0,0,0-.569.308c-1.474,1.218-3.546,1.222-5.413,1.636-7.874,1.746-15.033,7.239-19.694,13.888-3.3,4.717-6.737,7.522-10.952,11.49-.394.369-.819.843-.707,1.369a1.5,1.5,0,0,0,.339.6c2.742,3.378,7.3,4.609,11.539,5.647" transform="translate(-396.734 -296.631)" fill="#0b1d39"/>
        <path id="Trazado_59" data-name="Trazado 59" d="M430.541,324.49c.916-.986,2.824-1.521,4.162-1.874a5.791,5.791,0,0,1,3.948.34,4.029,4.029,0,0,0,.842.355.935.935,0,0,0,.857-.184,1.064,1.064,0,0,0,.267-.566c.153-.756.016-1.663.586-2.182a1.053,1.053,0,0,1-.133-.476,1.073,1.073,0,0,0,.4-.243.363.363,0,0,0,.06-.429c-.071-.1-.208-.148-.261-.261-.111-.234.214-.421.459-.5.451-.155,1.181-.364,1.324-.889.215-.789-.815-1.047-1-1.7a6.66,6.66,0,0,1-.153-1.338c-.016-.2-.215-2.237.107-2.222a14.352,14.352,0,0,0,1.973-.023c.282-.093.6-1.658.951-2.5s-2.048-4.331-3.324-6.309-7.975-2.7-10.077-2.111-6.8,1.817-7.057,2.318c-.244.482,1.058.609.814,1.242a5.986,5.986,0,0,1-.679.534,5.211,5.211,0,0,0-.659.81,3.086,3.086,0,0,0-.632,1.864.568.568,0,0,0,.123.372.656.656,0,0,0,.485.135l2.522.01a28.915,28.915,0,0,0-.057,4.65c.087,1.261,1.08,2.013,1.632,3.077.405.783-.929,1.779-4.01,2.442" transform="translate(-386.528 -301.176)" fill="#0b1d39"/>
        <path id="Trazado_60" data-name="Trazado 60" d="M422.566,331.115c1.14.038,2.55-.135,3.54.488,1.346.849,2.535,2.713,3.515,3.95a49.018,49.018,0,0,1,5.626,8.928,3.57,3.57,0,0,0,.682,1.071c.18.171.4.3.583.464.822.708,1.053,1.914,1.834,2.665a4.921,4.921,0,0,0,2.135,1c4.03,1.15,4.756,1.429,8.785,2.578,3.355.957,7.366,1.391,10.353,3.289,1.725,1.1,5.4-1.422,5.4-1.422s1.756.789,1.91,1.653.67.9.67.9l2.006-1.632,1.777-3.63s-.659-3.707-1.2-3.867a12.618,12.618,0,0,0-3.432-.519c-.742.131-5.63,3.127-6.452,3.529-.555.271-1.99-.649-2.453-.867-1.421-.668-10.119-6.162-11.313-6.77-.732-.374-3.8-1.158-4.137-1.836a4.642,4.642,0,0,1-.444-2.562,75.172,75.172,0,0,1-7.683-11.47c-1.1-2.024-1.926-4.2-3.021-6.217a5.6,5.6,0,0,0-2.194-1.832,30.4,30.4,0,0,0-2.386-1.909,3.455,3.455,0,0,0-1.165-.3l-4.255-.562" transform="translate(-387.407 -294.75)" fill="#0b1d39"/>
        <path id="Trazado_61" data-name="Trazado 61" d="M432.342,306.991a4.829,4.829,0,0,0-3.187,1.384,13.434,13.434,0,0,1-4.2,2.794,11.112,11.112,0,0,1-2.909.35,27.188,27.188,0,0,0-5.07.519,10.416,10.416,0,0,0-4.566,2.161,6.86,6.86,0,0,1,3.489-.839c1.21-.009,2.412.171,3.619.268a20.711,20.711,0,0,0,6.824-.5,14.312,14.312,0,0,0,6.035-3.15,5.519,5.519,0,0,0,2.148-4.278" transform="translate(-391.178 -299.248)" fill="#0b1d39"/>
        <path id="Trazado_62" data-name="Trazado 62" d="M431.158,306.08a7.609,7.609,0,0,0-3.576,1.334,30.611,30.611,0,0,1-4.265,1.953,10.6,10.6,0,0,1-2.174.6,12.782,12.782,0,0,1-1.884.076l-2.782-.026a12.941,12.941,0,0,0,9.278-.118,38.532,38.532,0,0,0,3.871-2.291,8.18,8.18,0,0,1,4.222-1.381" transform="translate(-389.442 -299.085)" fill="#0b1d39"/>
        <path id="Trazado_63" data-name="Trazado 63" d="M429.105,308.653a5.246,5.246,0,0,1-1.969,2.23c-2.555,1.9-5.6,3.428-8.773,3.21a6.7,6.7,0,0,0,2.944.184,17.223,17.223,0,0,0,12.109-6.652" transform="translate(-388.637 -298.426)" fill="#0b1d39"/>
        <path id="Trazado_64" data-name="Trazado 64" d="M439.118,324.535a6.945,6.945,0,0,0-2.071,3.449,10.907,10.907,0,0,1-.69,2.586,5.315,5.315,0,0,1-1.351,1.508,28.58,28.58,0,0,1-8.017,4.459,14.5,14.5,0,0,0-3.007,1.408,11.859,11.859,0,0,0-2.783,3.031c-1.378,1.927-2.746,4.306-1.927,6.529a4.072,4.072,0,0,1,.513,1.784c-.091.783-.839,1.308-1.541,1.678a17.124,17.124,0,0,1-5.824,1.827,7.443,7.443,0,0,1-3.857-.351,6.08,6.08,0,0,1-3.322-5.088,13.64,13.64,0,0,1,1.208-6.182c3.345-8.466,9.637-15.59,17.092-20.873a23.467,23.467,0,0,1,7.786-3.927,2.845,2.845,0,0,1,1.043-.111,3.158,3.158,0,0,1,1.12.455q1.295.736,2.59,1.469" transform="translate(-394.249 -294.749)" fill="#0b1d39"/>
      </g>
      <g id="Grupo_52" data-name="Grupo 52" transform="translate(80.277 30.5)">
        <path id="Trazado_65" data-name="Trazado 65" d="M422.18,329c4.167,3.208,8.338,6.42,12.228,9.958,1.762,1.6,3.555,3.321,5.836,4a12.664,12.664,0,0,0,3.923.378c4.431-.1,15.076-2.59,16.1-2.86,1.037-.274,2.016.5,3.065.369a3.712,3.712,0,0,0,1.058-.351q1.491-.668,2.981-1.341a3.124,3.124,0,0,0-2.579-.973c.215-.7.543-2.088,1.309-2.418.792-.34,1.874.583,2.568.883.237.1.585.15.683-.088.07-.17-.057-.354-.177-.494-.64-.75-1.21-1.727-2.194-2.036-1.047-.328-1.856.365-2.88.287-.954-.074-1.83-.672-2.85-.676a3,3,0,0,0-2.562,1.212c-.267.417-.415.944-.836,1.2a1.868,1.868,0,0,1-.8.205q-5,.516-10.035.622c-2.331.048-4.924-.07-6.579-1.713a11.886,11.886,0,0,1-1.086-1.357c-3.147-4.208-7.94-6.977-10.994-11.253" transform="translate(-422.18 -322.558)" fill="#0b1d39"/>
      </g>
    </g>
  </g>
</svg>
