<svg xmlns="http://www.w3.org/2000/svg" xmlns:xlink="http://www.w3.org/1999/xlink" width="963.754" height="714.144" viewBox="0 0 963.754 714.144">
  <defs>
    <clipPath id="clip-path">
      <path id="Trazado_16" data-name="Trazado 16" d="M920.99,145.58c-47.878.811-95.25-8.563-142.709-14.939s-96.452-9.675-142.632,2.991c-33.356,9.148-65.218,28.186-86.866,55.934-26.22,33.606-25.526,74.227-40.865,112.31-16.42,40.766-44.316,77.491-81.886,100.83-40.859,25.383-87.479,39.281-129.844,61.732-5.484,2.905-10.9,5.943-16.2,9.165-10.269,6.235-21.389,15.9-19.374,27.745,1.219,7.152,7.034,12.555,12.853,16.89a134.625,134.625,0,0,0,41.816,20.99c12.72,3.8,26.216,5.8,37.693,12.466s20.646,19.938,17.265,32.774c-.941,3.574-2.794,6.91-3.249,10.577-.922,7.428,4.028,14.287,9.443,19.453,30.473,29.069,77.415,28.926,117.932,40.411,30.754,8.717,58.916,24.786,89.132,35.22,51.12,17.654,106.419,18.65,160.438,16.056a1288.347,1288.347,0,0,0,181.2-21.663q45.293-8.7,89.884-20.633c13.229-3.54,14.452-4.078,14.452-16.832V91.858C1012.571,131.092,963.7,144.856,920.99,145.58Z" transform="translate(-260.374 -91.858)" fill="none"/>
    </clipPath>
    <linearGradient id="linear-gradient" x1="0.5" x2="0.5" y2="1" gradientUnits="objectBoundingBox">
      <stop offset="0" stop-color="#a2ebff"/>
      <stop offset="0.053" stop-color="#a8ebfb"/>
      <stop offset="0.478" stop-color="#d6f0de"/>
      <stop offset="0.806" stop-color="#f2f2cc"/>
      <stop offset="0.995" stop-color="#fdf4c6"/>
    </linearGradient>
    <linearGradient id="linear-gradient-2" x1="-0.34" x2="-0.34" y2="1" gradientUnits="objectBoundingBox">
      <stop offset="0" stop-color="#fff" stop-opacity="0.2"/>
      <stop offset="0.243" stop-color="#fdfdff" stop-opacity="0.216"/>
      <stop offset="0.467" stop-color="#f6faff" stop-opacity="0.259"/>
      <stop offset="0.683" stop-color="#ecf5ff" stop-opacity="0.333"/>
      <stop offset="0.894" stop-color="#deeeff" stop-opacity="0.435"/>
      <stop offset="1" stop-color="#d6eaff" stop-opacity="0.498"/>
    </linearGradient>
    <linearGradient id="linear-gradient-3" x1="0.5" y1="1" x2="0.5" gradientUnits="objectBoundingBox">
      <stop offset="0" stop-color="#b9e1f9"/>
      <stop offset="1" stop-color="#a2ebd3"/>
    </linearGradient>
    <linearGradient id="linear-gradient-4" x1="0.5" x2="0.5" y2="1" gradientUnits="objectBoundingBox">
      <stop offset="0" stop-color="#fff" stop-opacity="0.702"/>
      <stop offset="0.248" stop-color="#fcfdff" stop-opacity="0.69"/>
      <stop offset="0.478" stop-color="#f6faff" stop-opacity="0.659"/>
      <stop offset="0.699" stop-color="#ebf5ff" stop-opacity="0.604"/>
      <stop offset="0.915" stop-color="#ddedff" stop-opacity="0.533"/>
      <stop offset="1" stop-color="#d6eaff" stop-opacity="0.498"/>
    </linearGradient>
    <linearGradient id="linear-gradient-7" x1="0.5" y1="1" x2="0.5" gradientUnits="objectBoundingBox">
      <stop offset="0.226" stop-color="#01a7c2"/>
      <stop offset="0.419" stop-color="#36b4c6"/>
      <stop offset="0.602" stop-color="#62bec9"/>
      <stop offset="0.766" stop-color="#81c6cb"/>
      <stop offset="0.904" stop-color="#95cbcd"/>
      <stop offset="1" stop-color="#9ccdce"/>
    </linearGradient>
  </defs>
  <g id="Grupo_13855" data-name="Grupo 13855" transform="translate(1323.02 439.144)">
    <g id="Grupo_13854" data-name="Grupo 13854" transform="translate(-1324.02 -374.144)">
      <path id="Trazado_1" data-name="Trazado 1" d="M976.337,71.808c-28.721,48.265-91.658,64.826-147.747,61.949S717.844,113.187,661.7,111.684,542.918,130.2,517.816,180.447c-9.923,19.862-13.257,42.076-15.545,63.924-1.934,18.49-6.551,35.827-8.8,53.971-11.744,94.564-98.233,153.243-175.183,195.311-15.605,8.532-31.412,16.7-46.841,25.55-6.689,3.838-13.747,8.054-17.182,14.961-7.839,15.755,8.566,33.941,25.694,37.98,24.859,5.863,54.26-5.125,74.2,15.585,4.607,4.787,8.165,11.035,8.027,17.679-.232,11.153-10.389,18.248-9.263,29.775.934,9.547,7.31,18.827,15.61,23.442,6.7,3.725,14.358,5.28,21.889,6.708,25.639,4.858,79.75,2.6,103.811,13.08,53.182,23.173,77.46,52.542,134.382,65.138a612.333,612.333,0,0,0,156.321,13.76c104.788-4.149,208.818-34.6,298.113-89.861a563.175,563.175,0,0,0,46.625-32.183c16.8-12.9,33.033-26.8,46.238-43.365,35.5-44.53,46.023-105.518,37.073-161.756" transform="translate(-251.247 -136.808)" fill="#00b9be" opacity="0.14"/>
      <g id="Grupo_7" data-name="Grupo 7" transform="translate(13.679 33.749)">
        <g id="Grupo_6" data-name="Grupo 6" clip-path="url(#clip-path)">
          <rect id="Rectángulo_3" data-name="Rectángulo 3" width="857.203" height="624.709" transform="translate(-81.27 -5.563)" fill="url(#linear-gradient)"/>
          <g id="Grupo_2" data-name="Grupo 2" transform="translate(107.155 300.487)">
            <g id="Grupo_1" data-name="Grupo 1" transform="translate(493.375)">
              <circle id="Elipse_1" data-name="Elipse 1" cx="37.176" cy="37.176" r="37.176" fill="#fff" opacity="0.11"/>
              <circle id="Elipse_2" data-name="Elipse 2" cx="24.665" cy="24.665" r="24.665" transform="translate(12.511 12.511)" fill="#fff" opacity="0.11"/>
              <circle id="Elipse_3" data-name="Elipse 3" cx="15.013" cy="15.013" r="15.013" transform="translate(22.162 22.162)" fill="#fff" opacity="0.11"/>
              <circle id="Elipse_4" data-name="Elipse 4" cx="10.456" cy="10.456" r="10.456" transform="translate(26.72 26.72)" fill="#fff"/>
            </g>
            <path id="Trazado_2" data-name="Trazado 2" d="M720.628,212.815c-10.272-4.516-22.061.828-33.276.416-4.761-.175-9.415-1.4-14.137-2.041a57.866,57.866,0,0,0-29.117,3.6c-3.706,1.484-7.279,3.36-11.149,4.34-9.063,2.3-18.578-.545-27.925-.346-5.542.118-11,1.307-16.506,1.941-16.283,1.877-32.7-1.115-48.75-4.443-9.935-2.06-17.534-2.27-27.326.117-6.994,1.705-15.879,2.693-23.028,1.517a69.615,69.615,0,0,0-24.09.356c-2.279.385-5.127,1.887-2.453,4.065a8.07,8.07,0,0,0,4.681,1.607c3.233.127,6.353-1.087,9.552-1.579,6.789-1.04,13.316,1.21,19.963,2.089,6.007.794,12.529-2.234,18.337-.329,7.9,2.593,10.175,5.6,18.832,3.839a85.677,85.677,0,0,1,25.433-1.3c11,1.088,22.059,4.309,32.94,2.346,4.117-.743,8.233-2.226,12.373-1.628,4.75.686,8.64,3.971,12.911,6.161,7.859,4.029,17.1,4.336,25.9,3.5,10.1-.957,20.016-2.77,30.2-2.924,13.968-.211,27.738,2.975,41.626,4.485,24.223,2.634,48.677.161,72.917-2.312" transform="translate(-43.795 -130.685)" fill="url(#linear-gradient-2)"/>
            <path id="Trazado_3" data-name="Trazado 3" d="M229.005,356.116c10.609-10.412,25.437-15.067,38.141-22.784,12.237-7.433,22.523-17.738,34.707-25.258,18.4-11.357,41.1-16.4,55.979-32.091l.925,5a18.79,18.79,0,0,0,7.415-10.193c-.7.177-.505,1.374.177,1.617a2.5,2.5,0,0,0,2.039-.5,42.5,42.5,0,0,0,17.229-20.054c.813-1.974,2.084-4.419,4.207-4.2a4.258,4.258,0,0,1,2.025.966c5.657,4.236,8.768,11.086,13.978,15.861a25.511,25.511,0,0,0,13.1,6.338q1.663-1.467,3.328-2.932c5.411,12.257,20.939,14.317,29.858,23.028,8.116,7.927,19.6,26.8,33.389,17.688,3.093-2.045,5.5-5.48,8.006-8.619,6.427-8.032,19.218-12.421,27.721-18.357A222.61,222.61,0,0,0,549.9,257.825c2.013-1.979,4.25-4.121,7.066-4.315,1.478-.1,2.989.36,4.43.016,1.72-.411,2.962-1.865,4.077-3.237q16.287-20.023,32.572-40.049c.644-.79,1.673-1.663,2.546-1.138s-.937,1.9-.817.887q5.6-8.007,11.206-16.016l3.013-.69,2.635,17.532c2.649-1.89,6.388-.219,8.78,1.988s4.5,5.056,7.647,5.871c1.388.358,2.863.279,4.238.684,2.372.7,4.08,2.711,5.684,4.593a167.615,167.615,0,0,0,17.607,17.98c4.348,3.77,4.435,4.375,8.566.807,3.778-3.264,6.811-8.428,9.957-12.319l1.537,5.538a247.429,247.429,0,0,1,15.763-21.307c6.985,7.755,11.259,17.514,15.416,27.089q5.194,11.964,10.39,23.929a65.333,65.333,0,0,0,6.414-9.288c12.029,50.713,24.079,101.506,40.559,150.952" transform="translate(-60.642 -131.944)" fill="#b9e1f9" opacity="0.25" style="mix-blend-mode: multiply;isolation: isolate"/>
            <path id="Trazado_4" data-name="Trazado 4" d="M141.592,371.507c15.618-8.648,66.918-29.084,82.779-36.516,3.146-1.474,6.749-2.706,9.5-4.792,2.513-1.9,3.657-4.08,7.119-4.6a10.048,10.048,0,0,0,2.921-.6,9.3,9.3,0,0,0,2.8-2.836,13.6,13.6,0,0,1,7.374-4.635,23.157,23.157,0,0,0,4.192-1.022c1.8-.8,3.121-2.405,4.649-3.669,2.724-2.251,6.122-3.426,9.322-4.887,7.408-3.382,13.2-8.325,19.627-13.12,4.8,3.031,7.98,7.849,12.357,11.339,5.125,4.089,12.149,5.113,17.7,8.649a16.278,16.278,0,0,0,3.733,2.01,29.421,29.421,0,0,0,3.525.627,25.65,25.65,0,0,1,7.641,3.218c5.261,2.936,10.312,6.236,15.409,9.452,3.852,2.43,11.023,8.79,15.59,9.068,3.713.226,6.707-6.667,9.634-9.843A59.44,59.44,0,0,1,390.334,318.8c2.634-1.6,5.432-3.017,7.587-5.235,2.087-2.149,3.528-5,6.049-6.6,2.457-1.551,5.6-1.666,8.023-3.265,3.834-2.525,5.292-8.324,9.7-9.541,1.559-.431,3.377-.227,4.624-1.275a11.741,11.741,0,0,0,1.7-2.4c1.236-1.744,3.287-2.644,5.236-3.465L447.3,281.1a4.153,4.153,0,0,0,2.335-1.742c.623-1.294-.176-2.848.05-4.27.392-2.456,3.359-3.3,5.753-3.776,11.616-2.31,26.01-14.762,32.079-14.334s14.64,15.294,23.6,19.055c14.922,6.259,26.139,19.22,40.231,27.235,8.06,4.583,16.917,7.468,25.47,11a182.259,182.259,0,0,1,75.195,58.18c3.848,5.079,7.546,10.649,8.316,17.019,1.1,9.086-4.2,18.039-11.456,23.427s-16.2,7.8-25.013,9.544c-23.491,4.644-47.563,5.281-71.492,5.072-120.7-1.054-241.458-23.225-361.585-11.152-21.7,2.181-43.649,5.47-65.173,1.941" transform="translate(-68.124 -127.335)" fill="url(#linear-gradient-3)"/>
            <path id="Trazado_5" data-name="Trazado 5" d="M259.116,314.3a201.158,201.158,0,0,0,22.5,1.049c3.025,0,6.017.447,8.907-.34,3.554-.968,6.61-1.848,10.359-1.175,1.935.347,3.808,1.007,5.756,1.263,3.067.4,6.165-.207,9.21-.757a246.7,246.7,0,0,1,73.394-2.139c-.283,1.441-2.115,1.856-3.581,1.959Q373.63,315,361.56,315.23c-3.791.073-8.34.545-10.05,3.929,3.844,2.525,8.812,2.2,13.407,2.005,21.075-.9,42.11,2.8,63.2,2.5,19.744-.28,39.312-4.063,59.055-4.384,2.5-.041,5.217.05,7.136,1.647-8.274.262-16.316,2.638-24.471,4.06-16.52,2.881-33.452,1.839-50.172,3.117-12.107.927-24.206,3.074-36.315,2.179-10.793-.8-21.71-4-32.259-1.579-3.272.75-6.481,2.039-9.839,1.994-4.568-.059-5.5-2.919-8.517-5.351-6.717-5.407-17.081-1.026-24.433-.323a17.08,17.08,0,0,1-5.978-.258c-1.808-.477-3.449-1.432-5.2-2.085-7.9-2.945-16.6.55-25.029.9-6.711.278-13.528-1.465-20.091-.036" transform="translate(-58.977 -123.467)" fill="url(#linear-gradient-4)"/>
            <path id="Trazado_6" data-name="Trazado 6" d="M428.188,373.081q22.943-11.334,45.181-24.021c20.852-11.9,41.194-24.662,61.529-37.425l16.855-10.578A92.141,92.141,0,0,0,563.89,292.5c9.234-8.126,15.893-20.342,27.757-23.59a9.614,9.614,0,0,0,5.972,4.814c9.636,2.555,15.756-5.834,20.826-12.569,12.633-16.783,9.43-5.927,21.832,5.371,16.807,15.312,46.626,37.573,59.683,55.566,13.869,19.114,38.283,28.217,52.681,46.935,11.543,15,15.321,34.392,18.767,53.007.367,1.984.709,4.149-.246,5.928-1.325,2.47-4.5,3.128-7.28,3.513A1564.752,1564.752,0,0,1,510.066,445.72" transform="translate(-46.227 -127.658)" fill="url(#linear-gradient-3)"/>
            <path id="Trazado_7" data-name="Trazado 7" d="M695.593,272.293a51.253,51.253,0,0,0-19.813-.708,78.4,78.4,0,0,1-7.82,1.2,56.531,56.531,0,0,1-7.916-.375,104.155,104.155,0,0,0-24.119.841c1.115,2.279,4.307,2.175,6.844,2.158a22.6,22.6,0,0,1,12.2,3.512c-.55,1.545-2.428,2.089-4.05,2.322-10.444,1.5-21.213-.922-31.576,1.054-2.712.518-5.366,1.332-8.1,1.73-4.2.612-8.477.225-12.719.023a198.69,198.69,0,0,0-25.7.652c-4.209.345-8.41.78-12.607,1.24-3.322.365-6.411-1.629-9.448.841a152.647,152.647,0,0,0,28.728,2.148c7.57-.151,14.955-.28,22.507-.458.9-.021,2.148.3,2.044,1.2-.065.565-.677.875-1.214,1.063a20.391,20.391,0,0,1-5.468,1.1,3.777,3.777,0,0,0-1.79.379,1.163,1.163,0,0,0-.473,1.574l22.469-1.113c6.037-.3,12.217.178,18.213-.243,5.107-.359,9.657-3.222,15.026-2.812,4.328.331,8.251,2.577,12.436,3.727,4.477,1.229,9.191,1.187,13.834,1.137l40.9-.444" transform="translate(-37.356 -126.324)" fill="url(#linear-gradient-4)"/>
            <path id="Trazado_8" data-name="Trazado 8" d="M682.61,347.144c-30.491-16.345-66.425-20.208-100.878-17.076s-67.918,12.853-101.176,22.385c-54.85,15.721-110.645,31.175-167.7,31.264,39.559,3.322,77.018,18.6,115.751,27.3,26.531,5.959,53.653,8.825,80.74,11.214,38.084,3.359,76.581,5.788,114.433.408A281.122,281.122,0,0,0,752.471,369.3" transform="translate(-54.574 -122.117)" fill="url(#linear-gradient-7)"/>
            <path id="Trazado_9" data-name="Trazado 9" d="M176.771,374.042c28.1,5.252,59.984-1.086,88.008-6.739,29.579-5.966,59.967-8.379,90.032-5.808,25.253,2.16,50.066,7.8,75.138,11.517,30.579,4.532,61.771,4.8,92.614,6.411l97.059,5.063c7.448.389,15.128.835,21.832,4.1,2.782,1.355,5.51,3.42,6.314,6.408,1.307,4.852-2.9,9.339-6.9,12.37C618.894,423.981,591.35,431.7,563.991,434.9c-23.237,2.721-49.073,4.894-72.414,2.7-6.978-.656-13.379-3.628-20.347-4.331-9.469-.955-19.342-.094-28.855-.079-39.8.062-79.6-.761-119.369-2.256-68.831-2.589-138.295-5.956-206.493-16.131-14.8-2.208-30.483-4.23-44.509-9.744" transform="translate(-72.004 -119.844)" fill="url(#linear-gradient-7)"/>
          </g>
          <g id="Grupo_5" data-name="Grupo 5" transform="translate(45.501 445.732)">
            <path id="Trazado_10" data-name="Trazado 10" d="M581.912,375.568c.04.1.093.189.133.286.018-.121.025-.244.045-.365Z" transform="translate(-86.192 -343.806)" fill="#0b1d39"/>
            <path id="Trazado_11" data-name="Trazado 11" d="M338.236,400.4c-.005-.027-.012-.054-.018-.079l-.005.047Z" transform="translate(-252.694 -326.84)" fill="#0b1d39"/>
            <path id="Trazado_12" data-name="Trazado 12" d="M375.8,399.936c.115-.158.214-.327.335-.48A2.235,2.235,0,0,0,375.8,399.936Z" transform="translate(-227.011 -327.431)" fill="#0b1d39"/>
            <path id="Trazado_13" data-name="Trazado 13" d="M427.75,400.35l.022-.051C427.739,400.274,427.735,400.318,427.75,400.35Z" transform="translate(-191.525 -326.86)" fill="#0b1d39"/>
            <path id="Trazado_14" data-name="Trazado 14" d="M639.987,365.742a10.648,10.648,0,0,0-.374-1.193Q639.8,365.147,639.987,365.742Z" transform="translate(-46.769 -351.28)" fill="#0b1d39"/>
            <g id="Grupo_4" data-name="Grupo 4">
              <g id="Grupo_3" data-name="Grupo 3">
                <path id="Trazado_15" data-name="Trazado 15" d="M1027.586,407.838c3.574-2.913-10.567-18.2-9-22.475,3.338-9.1-.6-19.043-.742-28.7a77.935,77.935,0,0,1-3.218,10.366c-.457,1.173-1.444,2.582-2.659,2.175-.75-.252-1.074-1.086-1.309-1.824q-.909-2.875-1.821-5.755c.077,3.177.12,6.508-1.378,9.335a40.057,40.057,0,0,1-1.551-7.6q-1.16,4.059-2.32,8.12a42.732,42.732,0,0,1,.6-8.091,62.742,62.742,0,0,1-3.413,10.425c-1.657-2.58-1.521-5.847-1.33-8.89q-1.568,4.658-3.133,9.313c-.3.882-1.049,1.978-1.909,1.586-.506-.23-.644-.86-.7-1.4a24.574,24.574,0,0,1,.327-7.262,20.066,20.066,0,0,0-2.822,10.364,21.749,21.749,0,0,1-2.466-6.916c-.746,3.261-1.549,6.638-3.647,9.285q-.266-4.8-.214-9.606a48.358,48.358,0,0,0-1.569,10.643q-1.151-3.681-2.3-7.361a13.434,13.434,0,0,1-.945,9.195q-.189-2.627-.38-5.257-1.3,3.732-2.594,7.467a12.521,12.521,0,0,1-1.208-7.888,43.7,43.7,0,0,0-3.07,9.909,18.541,18.541,0,0,1,.411-8.772q-2.539,4.989-5.074,9.978a18.138,18.138,0,0,1-.972-8.144,35.945,35.945,0,0,0-2.19,8.3,23.755,23.755,0,0,1-.218-9.433,18.671,18.671,0,0,0-2.625,10.872c-1.458-2.446-1.881-5.334-2.277-8.138a25.574,25.574,0,0,0,.051,9.655,53.193,53.193,0,0,0-5.906-8.756,14.317,14.317,0,0,1,.626,11.358,32.022,32.022,0,0,1-1.145-8.516,25.253,25.253,0,0,0-2.617,9.494,15.225,15.225,0,0,1-.26-7.729,11.227,11.227,0,0,0-1.911,9.392c-1.281,0-1.811-1.572-1.976-2.81q-.437-3.256-.872-6.512a16.647,16.647,0,0,0-.976,7.835l-1.342.035a17.047,17.047,0,0,1-3.846-9.437,11.051,11.051,0,0,1-.893,6.371l-1.112-6.121a29.616,29.616,0,0,1-.37,7.746,11.207,11.207,0,0,1-2.531-9.744,23.778,23.778,0,0,0-2.057,9.835,15.178,15.178,0,0,1-1.773-9.461,15.393,15.393,0,0,0-1.761,10.818,10.449,10.449,0,0,1-4-8.225,34.4,34.4,0,0,0-.831,7.874,12.5,12.5,0,0,1-3.267-6.817q-.4,3.693-.807,7.386a12.846,12.846,0,0,1-1.645-8.785,12.868,12.868,0,0,0-2.623,10.289,8.824,8.824,0,0,1-3.172-4.336q-.109,2.108-.219,4.218a7.5,7.5,0,0,1-3.239-7.3,11.55,11.55,0,0,0-1.388,6.554,16.2,16.2,0,0,1-3.11-9.045,14.3,14.3,0,0,0-1.651,9.289,26.589,26.589,0,0,0-6.463-6.587,11.781,11.781,0,0,1,2.09,7.119,22.5,22.5,0,0,1-4.771-8.766,66.169,66.169,0,0,0-.413,9.732,13.607,13.607,0,0,1-4.471-8.789q-.322,4.024-.646,8.049a10,10,0,0,1-2.362-8.756,11.784,11.784,0,0,0-2.314,9.409,7.852,7.852,0,0,1-2.6-6.347l-.071,5.255a24.684,24.684,0,0,0-6.06-7.215,14.556,14.556,0,0,1,1.742,8.067,5.464,5.464,0,0,1-2.513-2.858,13.8,13.8,0,0,1,.242,4.574,9.424,9.424,0,0,1-3.59-6.414l.4,7.823a20.719,20.719,0,0,1-4.271-6.377,55.49,55.49,0,0,0-.362,9.52q-2.043-5.187-4.088-10.374c.811,3.67,1.049,7.986-1.637,10.687q-.419-2.6-.84-5.206a12.023,12.023,0,0,0-1.748,4.784q.889-4.065,1.779-8.13a35.482,35.482,0,0,0-5.009,8.2c-.968-3.694,1.336-7.386,3.537-10.553a9.335,9.335,0,0,0-4.877,5.4c-.453,1.342-.64,2.879-1.706,3.84a42.368,42.368,0,0,1-.559-7.548c-1.929,1.673-1.088,4.8-2.141,7.1a.773.773,0,0,1-.386.445c-.449.163-.775-.423-.86-.882a19.062,19.062,0,0,1,.081-7.412c-2.039,2.2-1.736,5.721-3.542,8.1a46.588,46.588,0,0,1-1.147-9.335c-2.25,2.653-1.488,6.642-2.836,9.821-.74-.014-.962-.974-.962-1.695q0-3.483,0-6.965c-2.431,1.775-1.006,7.959-3.149,10.055a63.2,63.2,0,0,1,.006-9.728c-1.637,3.151-2.145,6.723-2.629,10.22-1.476-3.651-1.332-7.709-1.169-11.633-2.549,3.141-3,7.376-3.358,11.362-1.726-2.81-2.019-6.213-2.271-9.484-.384,3.123-.773,10.183-1.157,13.306a26.539,26.539,0,0,1-1.7-12.666c-1.98,3.529-2.067,7.733-2.106,11.747-1.287-1.242-1.5-3.171-1.6-4.936q-.186-3.1-.254-6.2c-1.474,4.346-1.464,9.012-1.437,13.584-2.551-4.717-2.492-10.553-5.495-15.007q.369,6.025.242,12.068a15.649,15.649,0,0,1-2.035-6.136q-.948,3.59-1.9,7.177a31.474,31.474,0,0,1-.9-7.16,25.256,25.256,0,0,0-2.649,6.928c-.411-2.881-.777-6.009.72-8.532a35.237,35.237,0,0,0-4.686,8.028l1.5,2.846a20.27,20.27,0,0,1-3.295-11.72,7.207,7.207,0,0,0-2.206,4.6,22.446,22.446,0,0,1-1,5.084c-1.212-.439-1.614-1.889-1.791-3.137a43.628,43.628,0,0,1-.429-6.5c-1.689,2.85-2.216,6.191-2.712,9.443-1.649-2.356-1.529-5.444-1.346-8.3a17.1,17.1,0,0,0-1.464,9.144q-2.158-4.853-4.316-9.7.05,4.387.1,8.776a3.655,3.655,0,0,1-.482,2.281,2.637,2.637,0,0,1-.992-1.761l-1.171-4.659a62,62,0,0,0-1.6,7.437,8.01,8.01,0,0,1-1.549-5.086,17.644,17.644,0,0,1,1.075-5.288,11.879,11.879,0,0,0-2.832,11.027c-.85.146-1.374-.852-1.608-1.661q-1.081-3.74-2.163-7.483a5.787,5.787,0,0,0-.529,3.137q.068,3.359.136,6.715a23.5,23.5,0,0,1-2.755-11.314,9.075,9.075,0,0,0-1.956,5.389,26.786,26.786,0,0,0,.5,5.774c-2.161-2.007-2.672-5.143-2.907-8.045a13.056,13.056,0,0,0-1.366,8.549,8.4,8.4,0,0,1-2.49-5.028q-.481,2.636-.958,5.274a58.558,58.558,0,0,0-3.277-8.514q-.824,4.245-1.647,8.492a9.484,9.484,0,0,1,.38-6.349c-2.314,2.324-4.747,4.877-5.207,8.079a9.079,9.079,0,0,1,1.2-6.217,20.761,20.761,0,0,0-3.932,6.912,35.936,35.936,0,0,1-.138-8.563,7.129,7.129,0,0,0-2.8,4,32.277,32.277,0,0,1-1.612,4.676q-.277-2.861-.339-5.735c-1.387,2.043-.97,4.985-2.669,6.794a17.431,17.431,0,0,1,.2-10.826,11.2,11.2,0,0,0-3.485,5.859,32.6,32.6,0,0,0-.807,6.817q-2.347-4.549-4.694-9.1a50.324,50.324,0,0,1,.811,10.856c-1.842-1.779-1.728-4.664-1.488-7.185a9.946,9.946,0,0,0-2.308,8.055c-1.1-.037-1.575-1.348-1.716-2.407a32.005,32.005,0,0,1-.189-6.64c-2.616,2.954-2.708,7.229-2.663,11.123q-2.545-3.911-4.942-7.916c.772,3,1.551,6.1,1.045,9.16a4.1,4.1,0,0,1-1.734-3.163,32.2,32.2,0,0,0-.344-3.7c-1.74,2.181-2.055,5.1-2.3,7.841a11.251,11.251,0,0,1-1.781-7.8,5.017,5.017,0,0,0-1.828,4.21c-.006,1.582.378,3.147.374,4.729l-3.983-6.1a27.358,27.358,0,0,1,1.332,7.136,18.329,18.329,0,0,1-1.511-3.058l.2-.289c-1.7-2.352-1.325-9.549-.955-11.769a11.685,11.685,0,0,0-2.147,4.834c-.338,1.775-.272,3.6-.462,5.4-.148.234-.291.468-.431.707a18.446,18.446,0,0,1-1.694-5.05l-.5,6.477a21.639,21.639,0,0,0-2.72-6.876,14.19,14.19,0,0,1-1.815,9.161c-1.793-3.269-.392-4.45-.348-8.15a6.235,6.235,0,0,0-1.685,4.058,4.911,4.911,0,0,1-.8,2.423,4.037,4.037,0,0,1-.864-2.547,24.782,24.782,0,0,1,.1-4.906,15.163,15.163,0,0,0-2.789,8.512,9.236,9.236,0,0,1-1.014-7.266c-2.372,2.606-3.669,4.143-3.551,7.626-2.149-3.125-2-4.653-1.214-8.327-2.877,2.775-4.237,4.991-3.523,8.876-1.319-1.425-3.342-.175-2.474-7.52-1.634,2.226-1.366,5.231-1.031,7.951a15.8,15.8,0,0,1-2.063-10.958,7.324,7.324,0,0,0-2,5.8c.077,2.1.622,4.168.73,6.27-1.515-3.842-4.2-9.212-7.62-11.635a15.918,15.918,0,0,1,3.505,10.513,7.3,7.3,0,0,1-2.639-3.55c-.545-1.384-.852-2.846-1.328-4.253a6.292,6.292,0,0,0-.915,4.277,32.191,32.191,0,0,1,.348,4.446c-1.267-.555-1.815-1.99-2.175-3.293a44.167,44.167,0,0,1-.974-4.418c-.7,2.755-.183,5.648.335,8.445a5.132,5.132,0,0,1-2.462-3.686,13.271,13.271,0,0,0-1.346-4.33c-.659,3.308.1,6.713.854,10.008-1.433-3.117-4.8-5-6.577-7.945q.52,3.7,1.041,7.4c.1.689.193,1.376.272,2.066-2.122-1.124-2.791-5.69-3.247-7.992-1.067,1.75-.209,3.962-.175,6a5.526,5.526,0,0,1-1.573-6.625,5.977,5.977,0,0,0-1.419,7.495l1.565,1.649a3.594,3.594,0,0,1-1.872-1.637,11.043,11.043,0,0,1-1.576-7.951c-1.8,2.9-1.673,6.561-1.01,9.9l-.073-.388c-1.685-2.938-1.462-5.8-1.948-9.124-.685.258-1.059,2.929-1.374,3.576q-1.083,2.232-2.169,4.466a11.433,11.433,0,0,1-.289-5.8,13.641,13.641,0,0,0-3.669,7.038,5.055,5.055,0,0,1-1.462-4.875,4.116,4.116,0,0,0-1.952,2.2,11.879,11.879,0,0,0-.671,2.891,9.851,9.851,0,0,1-1.069-5.174c-1.075,1.63-1.141,3.68-1.173,5.617-1.506-2.263-1.2-5.194-.785-7.853a12.107,12.107,0,0,0-3.712,8.2l-4.109-4.912.726,4.566a1.873,1.873,0,0,1-.285,1.7c-.966-1.385-1.846-.862-2.629-2.352a17.259,17.259,0,0,0-.5,4.556,11.625,11.625,0,0,1-1.933-7.687c-2.059,2.068-2.535,5.141-2.911,8-1.212-1.356-.839-3.413-.392-5.152a6.884,6.884,0,0,0-2.419,5.91,9.306,9.306,0,0,1-1.47-6.546,17.657,17.657,0,0,0-3.83,8.506c.832-2.96-1.787-3.133-1.592-6.2a11.393,11.393,0,0,0-3.629,5.253c-.907-.482-.185-2.106-1.01-2.716a10.416,10.416,0,0,1-.836,3.271c-.669-1.984-.187-4.135.3-6.164-1.8,1.659-2.277,4.223-2.663,6.609q-2.013-2.928-4.023-5.857a35.762,35.762,0,0,1-.463,6.217.7.7,0,0,1-.169.411.5.5,0,0,1-.659-.073,1.363,1.363,0,0,1-.3-.642l-1.049-3.8a36.175,36.175,0,0,1-1.817,4.395c-.114.232-.3.5-.559.474-.305-.031-.4-.417-.411-.716a18.876,18.876,0,0,1,.681-5.733,10.262,10.262,0,0,0-3.8,4.828c-.2.545-.417,1.175-.964,1.409a12.231,12.231,0,0,1-.72-4.42,13.343,13.343,0,0,0-2.019,5.231,8.494,8.494,0,0,1,.866-8.841,11.093,11.093,0,0,0-4.985,8.341c-1.059-1.136.12-3.147-.768-4.414q-.918,2.559-1.838,5.119a10.578,10.578,0,0,0-1.6-3.936,2.58,2.58,0,0,1-.394,1.858,38.843,38.843,0,0,1-2.338,3.985l-.02.348c-.281-3.761-.033-3.121.2-6.884a12.858,12.858,0,0,0-3.212,6.121,4.845,4.845,0,0,1-.331-3.233,35.149,35.149,0,0,1,1.063-4.865c-2.09,1.7-4.326,3.635-4.729,6.258-.01.069-.035.155-.138.126l-.573,1.317a46.469,46.469,0,0,0-1.732-4.452,10.288,10.288,0,0,1-2.232,5.53,16.71,16.71,0,0,1,1.488-8.486,10.462,10.462,0,0,0-4.985,7.148,4.594,4.594,0,0,1-.626-3.1l.081-2.141a12.965,12.965,0,0,0-3.348,6.2,9.827,9.827,0,0,1,.283-7.772,7.909,7.909,0,0,0-3.48,5.2c-.187,1.065-.179,2.244-.882,3.08a15.075,15.075,0,0,0-2.5-4.57c-.311,2.431-.9,5.072-2.885,6.577-.783-2.488.75-5.9,1.529-8.38-2.364,1.043-3.609,3.615-4.086,6.1-.059.315-.224.718-.551.675a23.789,23.789,0,0,1,.478-7.977,7.168,7.168,0,0,0-4.048,4.773,11.6,11.6,0,0,1-.819,3.161,13.917,13.917,0,0,1-.661-5.778c-1.142.336-1.5,1.7-1.673,2.85L531.86,446q-1.054-3.047-1.818-6.18c-1.433,1.809-.15,4.568-1.1,6.658a29.577,29.577,0,0,0-3.039-7.955,30.842,30.842,0,0,1-.909,8.3,10.8,10.8,0,0,1-.553-6.754c-1.978,1.641-2.708,4.259-3.336,6.713a6.364,6.364,0,0,1-.864-4.186,35.3,35.3,0,0,0,.352-4.332c-2.277,2-3.444,4.9-4.536,7.685a20.974,20.974,0,0,1-1.151-3.554,5.472,5.472,0,0,1-1.578,3.279,18.456,18.456,0,0,0-.685-4.015,11.13,11.13,0,0,1-4.1,5.731c.028-2.383,1.441-4.229,1.929-6.565a4.183,4.183,0,0,1,1.167-2.46c-1.9,1.687-3.877,3.5-4.566,5.91-.157.547-.514,1.281-1.069,1.094-.378-.128-.455-.608-.459-1a21.729,21.729,0,0,1,.246-3.483c-1.525,1.01-1.893,2.988-2.5,4.68-.081.222-.211.478-.451.5a.5.5,0,0,1-.366-.152,1.879,1.879,0,0,1-.447-1.366,26.469,26.469,0,0,1,.112-3.749q-1.172,2.48-2.348,4.964a2.865,2.865,0,0,1-.4-2.289,27.017,27.017,0,0,1,1.159-5.148,10.146,10.146,0,0,0-2.734,4.029,15.213,15.213,0,0,1-1.462,3.741,12.428,12.428,0,0,1-1.254-3.379q-.7,1.913-1.419,3.814a20.364,20.364,0,0,1-1.368-3.853,18.073,18.073,0,0,1-2.3,4.633l-.053-1.393A30.08,30.08,0,0,1,491,439.565c-2.281,1.222-3.369,3.761-4.572,6.007-.094.179-.228.38-.437.39-.321.012-.433-.413-.421-.726.108-2.927,1.387-5.674,2.647-8.333a19.694,19.694,0,0,0-5.231,7.321,1.585,1.585,0,0,1-.409.667.549.549,0,0,1-.726.006.671.671,0,0,1-.134-.39,6.3,6.3,0,0,1,.1-1.63,24.965,24.965,0,0,1,1.429-5.176c-2.094,1.984-3.186,4.733-4.221,7.392a18.879,18.879,0,0,0-.675-2.212,7.926,7.926,0,0,0-1.4,4.029q-.974-2.12-1.95-4.239a11.188,11.188,0,0,1-1.988,5.579c.189-3.417.789-5.109,1.224-8.968l-2.45,4.676c-.2.39-1.053,1.671-1.439,1.447-.262-.151-.274-.506-.254-.8l.285-4.345a22.4,22.4,0,0,0-3.082,6.211,13.062,13.062,0,0,1,.642-8.5c-2.356,1.86-3.344,4.863-4.214,7.691q-.472-1.523-1-3.029a7.087,7.087,0,0,0-1.185,3.094,9.307,9.307,0,0,1-.549-2.484,3.606,3.606,0,0,1,.384-1.8,14.667,14.667,0,0,0-2.637,6.264c-.14-2.295-.293-5.91-1.537-7.868q-1.016,2.432-2.029,4.865c-.146.35-.421.771-.8.681l.931-3.137a4.434,4.434,0,0,0-2.649,1.706,18.068,18.068,0,0,1-2.1,2.413,6.02,6.02,0,0,1,2.57-6.04,11.315,11.315,0,0,0-5.6,5.172,3.878,3.878,0,0,1-.167-3.1c.305-1.019.813-1.978,1.078-3.009a5.5,5.5,0,0,0-3.354,4.2,6.73,6.73,0,0,1-.435,2.271,15.813,15.813,0,0,0-3.537-8.573,6.9,6.9,0,0,1,.222,4.686c-.293,1.445-.644,2.881-1.049,4.3-1.195-1.283-1.291-3.192-1.136-4.914.136-1.48.407-2.942.677-4.4a19.744,19.744,0,0,0-2.867,7.313c-.065.378-.236.858-.63.846-.431-.014-.541-.583-.518-1q.109-2.028.222-4.056a10.58,10.58,0,0,0-1.466,5.084c-.624-.132-.821-.894-.868-1.513a24.562,24.562,0,0,1,.067-4.485,4.889,4.889,0,0,0-1.474,3.383,23.57,23.57,0,0,1-.368,3.749,18.062,18.062,0,0,1-2.147-11.594c-2.588,2.753-3.444,6.632-3.832,10.348a12.292,12.292,0,0,1-1.116-4.79c-.85.4-1.1,1.439-1.248,2.346q-.233,1.42-.464,2.838a1.838,1.838,0,0,1-.712-1.592,11.8,11.8,0,0,1,.51-4.166c-1.445,1.962-2.913,4.255-2.429,6.626l-.027,3.241c-.254-2.072-1.348-4.1-1.742-6.2a9.476,9.476,0,0,1,.746-5.764,13,13,0,0,0-4.645,6.365,2.234,2.234,0,0,1-.746,1.281,9.959,9.959,0,0,1,1.059-9.018,12.339,12.339,0,0,0-5.062,9.2c-.494-3.015-2.476-5.637-3.106-8.63a19.581,19.581,0,0,1-2.153,9.01,9.951,9.951,0,0,1-.317-4.592,6.116,6.116,0,0,0-1.738,3.458.864.864,0,0,1-.195.529.586.586,0,0,1-.832-.181,1.475,1.475,0,0,1-.148-.921,15.491,15.491,0,0,1,.87-4.188,16.322,16.322,0,0,0-2.332,4.381c-.287-.165-.3-.557-.277-.88a23.325,23.325,0,0,1,1.789-7.272,17.5,17.5,0,0,0-5.591,8.2c-.394-.02-.488-.539-.466-.921l.183-3.224a23.931,23.931,0,0,0-2.137,4.41,10.345,10.345,0,0,1-.443-5.015c-1.445,1.486-2.393,5.448-2.413,7.494q-1.671-2.19-3.346-4.383a2.354,2.354,0,0,1,.043.492q-.053,2.208-.212,4.412l.262,2.653a3.242,3.242,0,0,1-.567-2.246,36.9,36.9,0,0,1,.447-5.349l-.512-.669c.3.053.445.313.518.614a37.164,37.164,0,0,1,1.25-5.341,15.16,15.16,0,0,0-4.757,11.269l.132,1.393a12.44,12.44,0,0,1-.691-7.683,12.645,12.645,0,0,0-2.059,3.7,7.507,7.507,0,0,0-.472,1.452c-.016-.195-.033-.39-.035-.579-.035-2.517.26-5.16,1.712-7.241-1.773,2-3.306,6.233-4.3,8.693a2.153,2.153,0,0,0-.077,2.021l-.4.329c-.7-1.954.266-4.04.791-6.042a14.325,14.325,0,0,0,.169-6.536c-.61.695-.382,1.746-.608,2.631a6.182,6.182,0,0,1-1.212,2.041A15.175,15.175,0,0,0,374.2,448.5c-.439-.3-.425-2.826-.443-3.35-.043-1.447.118-.966.681-2.307-1.789,1.523-3.029,1.59-3.747,3.794a3.429,3.429,0,0,1-.317-2.224,19.278,19.278,0,0,1,1.956-6.67c-1.356,1.1-2.934,6.068-4.066,7.38a9.53,9.53,0,0,0-2.316,4.554c-.764-2.009-.11-4.446-1.332-6.229a10.129,10.129,0,0,1-2.771,5.381,3.567,3.567,0,0,1,.862-3.9,21.473,21.473,0,0,0-4.029,5.495l-.067,3.285a18.9,18.9,0,0,1,2.73-12.06,26.555,26.555,0,0,0-4.227,4.141c-.693.921-1.33,3.273-1.73,5.461a15.7,15.7,0,0,1,2.535-11.309c-3.043,3.48-5.644,9.321-7.8,13.379l-.527.222a23.54,23.54,0,0,1-.992-9.167,12.509,12.509,0,0,0-3.517,8.5c-.909-2.149-1.551-4.436-2.545-6.544-1.25,2.962-2.1,6.117-3.678,8.955a24.068,24.068,0,0,0-1.667-7.317,19.355,19.355,0,0,1-2.417,8.061c.962-1.5-3.352-8.959-4.328-10.149.433,4.129-.165,4.5-2.1,8.191-1.338-3.466-3.958-4.564-7.158-6.577,2.236,3.556,3.094,4.151,1.945,8.156-.594-.98-1.632-2.684-5.143-8.461.006,3.127.12,4.32.126,7.447l-3.739-10.02c-.407,2.509.293,6.973.581,9.5s-.028,3.515-2.165,4.975a1.142,1.142,0,0,1-.744.258,1.228,1.228,0,0,1-.809-.645c-2.163-3.269-2.679-7.7-5.906-10,1.437,3.757,3.082,4.133,1.362,7.768-1.183-3.159-3.009-2.3-5-5.05,2.808,3.891-.144,8.484-4.04,9.443l-10.261,2.517c.033.571.766.77,1.334.8,8.961.581,17.856-.213,26.665,1.929,8.486,2.063,17.709,1.909,26.354.817,3.661-.463,7.288-1.4,10.98-1.279,5.495.183,10.6,2.684,15.914,4.058a135.835,135.835,0,0,0,33.989,4.647c13.531-.018,26.817,2.854,40.027,6.323,43.311,13.9,84.3,37,126.386,55.145l451.769,25.178,7.746-134.811C1032.656,424.023,1024.012,410.749,1027.586,407.838ZM355.863,453.174l.057-.124C356.058,453.511,356,453.5,355.863,453.174Zm25.424-4.143.695.687A1.806,1.806,0,0,1,381.287,449.031Zm325.968-21.31.781-1.147c-.018.675-.022,1.35-.012,2.019A5.575,5.575,0,0,1,707.255,427.721Z" transform="translate(-287.406 -356.666)" fill="#0b1d39"/>
              </g>
            </g>
          </g>
        </g>
      </g>
    </g>
    <g id="Grupo_13853" data-name="Grupo 13853" transform="translate(-1010 -58.952)">
      <g id="Grupo_53" data-name="Grupo 53" transform="translate(17.362 156.326) rotate(-3)">
        <g id="Grupo_28" data-name="Grupo 28" transform="translate(0 29.159)">
          <g id="Grupo_10" data-name="Grupo 10" transform="translate(82.882 1.091)">
            <path id="Trazado_32" data-name="Trazado 32" d="M608.594,352.824c-10.527-30.166-10.527-30.166-10.538-30.205a3.613,3.613,0,0,1,.742-3.6,2.821,2.821,0,0,0,.689-1.573c.008-.837-.393-1.058-1.637-1.523l-.309-.116.681-1.767.292.111c1.15.431,2.887,1.081,2.865,3.315a4.536,4.536,0,0,1-1.025,2.63c-.551.8-.782,1.181-.5,1.95.08.228,10.525,30.157,10.525,30.157Z" transform="translate(-597.542 -314.036)" fill="#0b1d39"/>
          </g>
          <g id="Grupo_11" data-name="Grupo 11" transform="translate(37.39 14.96)">
            <rect id="Rectángulo_4" data-name="Rectángulo 4" width="3.786" height="37.264" transform="matrix(0.945, -0.328, 0.328, 0.945, 0, 1.243)" fill="#0b1d39"/>
          </g>
          <g id="Grupo_14" data-name="Grupo 14" transform="translate(0 25.101)">
            <g id="Grupo_12" data-name="Grupo 12">
              <path id="Trazado_33" data-name="Trazado 33" d="M529.156,339.634a21.765,21.765,0,1,0,23.821,19.492A21.79,21.79,0,0,0,529.156,339.634Zm4.392,20.135,11.884-10.135a18.4,18.4,0,0,1,1.88,2.753Zm14.03-6.87a18.179,18.179,0,0,1,1.056,2.479l-14.347,4.65Zm-14,6.092,9.55-11.671a18.46,18.46,0,0,1,1.921,1.888Zm-.781.044,7.1-13.911a18.428,18.428,0,0,1,2.784,1.831Zm-.27-.733,4.36-14.448a18.185,18.185,0,0,1,2.493,1.022Zm-.7.334,1.237-15.569a18.1,18.1,0,0,1,3.272.627Zm-.533-.569-1.5-15.01a18.392,18.392,0,0,1,2.694-.02Zm-.52.584-4.817-14.863a18.305,18.305,0,0,1,3.265-.674Zm-.71-.326-7.129-13.291a18.021,18.021,0,0,1,2.479-1.056Zm-.259.737L519.663,347.18a18.251,18.251,0,0,1,2.751-1.879Zm-.778-.025-11.671-9.551a18.544,18.544,0,0,1,1.889-1.921Zm.045.78-13.912-7.1a18.561,18.561,0,0,1,1.831-2.784Zm-.733.271-14.449-4.359a18.232,18.232,0,0,1,1.022-2.494Zm.333.7L513.1,359.554a18.109,18.109,0,0,1,.626-3.271Zm-.569.533-15.01,1.5a18.273,18.273,0,0,1-.019-2.694Zm.585.52-14.864,4.818a18.289,18.289,0,0,1-.673-3.265Zm-.328.711-13.29,7.128a18.163,18.163,0,0,1-1.056-2.478Zm.738.258-11.883,10.134a18.3,18.3,0,0,1-1.879-2.751Zm-.024.777-9.551,11.673a18.462,18.462,0,0,1-1.922-1.89Zm.779-.042-7.1,13.91a18.473,18.473,0,0,1-2.783-1.831Zm.271.732-4.36,14.448a18.18,18.18,0,0,1-2.493-1.022Zm.7-.334-1.237,15.569a18.183,18.183,0,0,1-3.272-.627Zm.532.569,1.5,15.01a18.4,18.4,0,0,1-2.7.02Zm.52-.584,4.817,14.863a18.292,18.292,0,0,1-3.264.674Zm.71.326,7.129,13.292a18.249,18.249,0,0,1-2.479,1.056Zm.26-.737L542.975,375.4a18.251,18.251,0,0,1-2.752,1.879Zm.778.025,11.67,9.551a18.36,18.36,0,0,1-1.889,1.921Zm-.045-.78,13.911,7.1a18.363,18.363,0,0,1-1.831,2.784Zm.733-.271,14.448,4.361a18.384,18.384,0,0,1-1.021,2.493Zm-.334-.7,15.569,1.237a18.183,18.183,0,0,1-.626,3.272Zm.569-.533,15.01-1.5a18.409,18.409,0,0,1,.02,2.694Zm-.584-.52,14.864-4.817a18.364,18.364,0,0,1,.673,3.265Z" transform="translate(-509.554 -339.525)" fill="#0b1d39"/>
            </g>
            <g id="Grupo_13" data-name="Grupo 13" transform="translate(18.02 18.021)">
              <path id="Trazado_34" data-name="Trazado 34" d="M536.156,362.029a3.745,3.745,0,1,1-4.1-3.354A3.744,3.744,0,0,1,536.156,362.029Z" transform="translate(-528.684 -358.656)" fill="#0b1d39"/>
            </g>
          </g>
          <g id="Grupo_17" data-name="Grupo 17" transform="translate(73.062 17.8)">
            <g id="Grupo_15" data-name="Grupo 15">
              <path id="Trazado_35" data-name="Trazado 35" d="M606.719,331.883a21.764,21.764,0,1,0,23.822,19.492A21.79,21.79,0,0,0,606.719,331.883Zm4.392,20.135L623,341.883a18.283,18.283,0,0,1,1.879,2.753Zm14.03-6.87a18.165,18.165,0,0,1,1.055,2.478l-14.346,4.65Zm-14,6.092,9.551-11.671a18.541,18.541,0,0,1,1.921,1.888Zm-.78.044,7.1-13.911a18.417,18.417,0,0,1,2.784,1.831Zm-.271-.733,4.36-14.448a18.344,18.344,0,0,1,2.494,1.021Zm-.7.334,1.238-15.569a18.1,18.1,0,0,1,3.272.627Zm-.532-.569-1.5-15.01a18.265,18.265,0,0,1,2.694-.02Zm-.52.584-4.817-14.864a18.351,18.351,0,0,1,3.264-.673Zm-.71-.326-7.13-13.292a18.2,18.2,0,0,1,2.48-1.056Zm-.259.737-10.135-11.883a18.311,18.311,0,0,1,2.752-1.879Zm-.778-.026-11.671-9.55a18.437,18.437,0,0,1,1.888-1.921Zm.044.781-13.911-7.1a18.416,18.416,0,0,1,1.831-2.785Zm-.733.271-14.449-4.359a18.391,18.391,0,0,1,1.022-2.494Zm.334.7L590.66,351.8a18.166,18.166,0,0,1,.626-3.272Zm-.569.533-15.01,1.5a18.392,18.392,0,0,1-.02-2.694Zm.585.52-14.864,4.818a18.3,18.3,0,0,1-.674-3.266Zm-.328.71-13.291,7.129a18.172,18.172,0,0,1-1.055-2.478Zm.737.259L594.772,365.2a18.316,18.316,0,0,1-1.879-2.752Zm-.024.777-9.551,11.672a18.288,18.288,0,0,1-1.922-1.889Zm.779-.043-7.1,13.91a18.352,18.352,0,0,1-2.783-1.83Zm.271.732-4.36,14.449a18.235,18.235,0,0,1-2.494-1.022Zm.7-.333-1.237,15.568a18.1,18.1,0,0,1-3.272-.626Zm.533.569,1.5,15.01a18.255,18.255,0,0,1-2.694.019Zm.52-.584,4.817,14.863a18.294,18.294,0,0,1-3.265.673Zm.71.326,7.129,13.291a18.065,18.065,0,0,1-2.479,1.056Zm.259-.737,10.134,11.883a18.264,18.264,0,0,1-2.752,1.879Zm.778.025,11.67,9.551a18.355,18.355,0,0,1-1.888,1.921Zm-.044-.78,13.91,7.1a18.476,18.476,0,0,1-1.83,2.784Zm.733-.271,14.448,4.36A18.155,18.155,0,0,1,625.3,361.6Zm-.335-.7,15.569,1.238a18.088,18.088,0,0,1-.626,3.272Zm.57-.532,15.01-1.5a18.278,18.278,0,0,1,.019,2.7Zm-.584-.52,14.863-4.817a18.266,18.266,0,0,1,.674,3.264Z" transform="translate(-587.117 -331.774)" fill="#0b1d39"/>
            </g>
            <g id="Grupo_16" data-name="Grupo 16" transform="translate(18.021 18.021)">
              <path id="Trazado_36" data-name="Trazado 36" d="M613.72,354.277a3.745,3.745,0,1,1-4.1-3.353A3.746,3.746,0,0,1,613.72,354.277Z" transform="translate(-606.248 -350.905)" fill="#0b1d39"/>
            </g>
          </g>
          <g id="Grupo_18" data-name="Grupo 18" transform="translate(20.82 11.573)">
            <path id="Trazado_37" data-name="Trazado 37" d="M562.347,365.311a.994.994,0,0,1-.218,0L532.478,361.4a.948.948,0,0,1-.641-1.495l18.995-26.1a.935.935,0,0,1,.592-.374l44.239-8.25a.947.947,0,0,1,.885,1.555l-33.583,38.262A.947.947,0,0,1,562.347,365.311ZM534.3,359.729l27.572,3.636,31.445-35.827-41.18,7.679Z" transform="translate(-531.656 -325.163)" fill="#0b1d39"/>
          </g>
          <g id="Grupo_19" data-name="Grupo 19" transform="translate(47.291 45.996)">
            <path id="Trazado_38" data-name="Trazado 38" d="M567.907,365.385a4.084,4.084,0,1,1-4.471-3.658A4.085,4.085,0,0,1,567.907,365.385Z" transform="translate(-559.758 -361.707)" fill="#0b1d39"/>
          </g>
          <g id="Grupo_20" data-name="Grupo 20" transform="translate(36.542 49.136)">
            <path id="Trazado_39" data-name="Trazado 39" d="M549.387,371.773a.946.946,0,0,1-.405-1.835l13.886-4.846a.947.947,0,1,1,.625,1.788l-13.886,4.846A1.019,1.019,0,0,1,549.387,371.773Z" transform="translate(-548.347 -365.041)" fill="#0b1d39"/>
          </g>
          <g id="Grupo_21" data-name="Grupo 21" transform="translate(34.107 53.343)">
            <rect id="Rectángulo_5" data-name="Rectángulo 5" width="6.576" height="2.523" transform="matrix(0.995, -0.099, 0.099, 0.995, 0, 0.654)" fill="#0b1d39"/>
          </g>
          <g id="Grupo_22" data-name="Grupo 22" transform="translate(50.428 46.736)">
            <path id="Trazado_40" data-name="Trazado 40" d="M564.128,366.779a.946.946,0,0,1-.3-1.865l10.805-2.4a.967.967,0,0,1,1.13.72.948.948,0,0,1-.719,1.129l-10.806,2.4A.893.893,0,0,1,564.128,366.779Z" transform="translate(-563.089 -362.493)" fill="#0b1d39"/>
          </g>
          <g id="Grupo_23" data-name="Grupo 23" transform="translate(58.877 46.371)">
            <rect id="Rectángulo_6" data-name="Rectángulo 6" width="6.575" height="2.523" transform="matrix(1, -0.013, 0.013, 1, 0, 0.089)" fill="#0b1d39"/>
          </g>
          <g id="Grupo_24" data-name="Grupo 24" transform="translate(28.744 14.091)">
            <path id="Trazado_41" data-name="Trazado 41" d="M555.974,328.459c-.244-.9-14.814-.922-15.638.585s.127,5.4,4.667,5.721C547.4,334.932,556.46,330.253,555.974,328.459Z" transform="translate(-540.069 -327.837)" fill="#0b1d39"/>
          </g>
          <g id="Grupo_25" data-name="Grupo 25" transform="translate(76.881 0.434)">
            <path id="Trazado_42" data-name="Trazado 42" d="M591.622,323.969l-.451-1.837c6.375-1.564,7.535-3.36,7.737-4.06a2.128,2.128,0,0,0-.784-2.03c-.4-.41-2.907-.8-5.266-.81l.011-1.893c1.245.008,5.4.132,6.616,1.388a3.851,3.851,0,0,1,1.24,3.872C600.068,320.873,597.09,322.629,591.622,323.969Z" transform="translate(-591.171 -313.339)" fill="#0b1d39"/>
          </g>
          <g id="Grupo_26" data-name="Grupo 26" transform="translate(76.076 7.226)">
            <rect id="Rectángulo_7" data-name="Rectángulo 7" width="4.926" height="2.524" transform="translate(0 1.802) rotate(-21.453)" fill="#0b1d39"/>
          </g>
          <g id="Grupo_27" data-name="Grupo 27" transform="translate(75.725 0)">
            <rect id="Rectángulo_8" data-name="Rectángulo 8" width="4.926" height="2.524" transform="translate(0 0.102) rotate(-1.189)" fill="#0b1d39"/>
          </g>
        </g>
        <g id="Grupo_29" data-name="Grupo 29" transform="translate(22.842)">
          <path id="Trazado_43" data-name="Trazado 43" d="M596.081,317.31a8.4,8.4,0,0,0-2.291-.109c-.479.138-3.491,2.439-4,2.758-1.714.527-8.439-3.956-10.5-4.368a2.119,2.119,0,0,1-1.058-.413c-.357-.328-.474-.9-.914-1.108a.765.765,0,0,1-.152-.077c-.165-.129-.1-.392,0-.577s.215-.409.11-.591a.7.7,0,0,0-.241-.2,1.758,1.758,0,0,1-.769-1.2c-.068-.468.057-.95-.023-1.417-.143-.836-.856-1.392-1.191-2.139-.349-.78-.633-1.562-1.052-2.329a15.533,15.533,0,0,0-3.465-4.5l-.305-.828a4.1,4.1,0,0,1,1.515-.054l-.478-1.2s2.577-.4,2.867-.385c.542.036,1.477.827,2.432,1,.413.075.574-.171.717-.5q.259-.588.49-1.188a.376.376,0,0,0,.036-.163c-.008-.1-.1-.2-.065-.3a.251.251,0,0,1,.116-.111c.1-.057.472-.162.425-.327-.014-.046-.06-.075-.086-.117-.1-.167.252-.455.319-.592-.339-.016-.291-.467-.11-.641a.986.986,0,0,1,.421-.194,2.109,2.109,0,0,0,1.188-.592c.38-.541-.555-1.332-.712-2.061a2.7,2.7,0,0,1,.148-1.789,10.857,10.857,0,0,0,1.482.138c.219-.047.582-1.2.91-1.8s-1.194-3.409-1.994-4.993-5.766-2.651-7.387-2.378-5.245.826-5.474,1.181.746.541.513,1a4.734,4.734,0,0,1-.552.347,3.93,3.93,0,0,0-.558.556,2.325,2.325,0,0,0-.621,1.347.431.431,0,0,0,.062.289.494.494,0,0,0,.354.139l1.89.206a21.653,21.653,0,0,0-.41,3.482,1.511,1.511,0,0,0,.107.756c.152.294.474.465.648.746.365.587-.113.957-.77,1.189l-.294-.8a4.847,4.847,0,0,1-3.991,1.064,27.064,27.064,0,0,0-4.276-.6,11.089,11.089,0,0,0-3.4.839,87.136,87.136,0,0,0-10.574,4.744,24.908,24.908,0,0,0-2.8,1.669,29.063,29.063,0,0,0-3.463,3.07c-1.786,1.761-4.329,3.942-5.049,6.428,2.075.245.781,2.258.845,3.612q-.109,1.917-.072,3.839a8.726,8.726,0,0,0,.571,3.434,9.552,9.552,0,0,0,2.322,2.856,12.073,12.073,0,0,0,3.717,2.712c.635.249,1.307.388,1.958.59.155.048.305.113.459.167a78.571,78.571,0,0,1,6.2,4.945,3.476,3.476,0,0,1-.273,1.1c-.246.539-.349,1.06-.547,1.626a22.057,22.057,0,0,1-1.742,3.319,16.484,16.484,0,0,0-2,4.466c-.548,2.717-.931,5.473-1.365,8.209-.327,2.058-.31,7.724-2.935,8.247a2.429,2.429,0,0,0-.675.166c-.659.35-.483,1.333-.191,2.02a3.2,3.2,0,0,0,1.168,1.617,4.513,4.513,0,0,0,1.8.366,6.444,6.444,0,0,1,3.763,1.788,1.36,1.36,0,0,0,.533.388,1.229,1.229,0,0,0,.514,0l3.023-.42a4.441,4.441,0,0,0,1.521-.4,1.507,1.507,0,0,0,.848-1.246,5.46,5.46,0,0,1-3.161-1.256,9.876,9.876,0,0,1-2.511-2.13c-1.769-2.358.315-5.138,1.34-7.34,1.816-3.9,3.688-7.913,5.219-11.93a13.213,13.213,0,0,1,2.295-3.711,2.992,2.992,0,0,0,.994-1.087,9.957,9.957,0,0,0,.982-2.463c.5-1.717-.281-3.38-1.07-4.829-.133-.244-1.956-2.871-2.092-3.114l7.668,2.338c2.416.14,4.7.416,4.7.416a3.234,3.234,0,0,1,.445,1.556c-.057.706-1.9,6.325-1.766,8.616.17,2.831.479,5.649.791,8.466.141,1.275.235,2.567.461,3.831.174.977.627,2.134.182,3.1-.253.551-.643,1.029-.914,1.572a3.166,3.166,0,0,0-.191,2.534,2.2,2.2,0,0,0,2,1.424c.976-.025,1.8-.8,2.766-.9a4.612,4.612,0,0,1,1.476.186c1.8.4,6.052-.114,6.387-1.374.115-.43-.72-1.22-1.1-1.452a3.826,3.826,0,0,0-1.264-.407,10.054,10.054,0,0,1-4.454-1.725,1.959,1.959,0,0,1-.591-.692,2.281,2.281,0,0,1-.148-.836c-.137-3.2,1.013-6.5,1.37-9.667.411-3.65,1.04-7.377,1.789-10.98a5.255,5.255,0,0,1,.6-2.088c1-1.223.419-3.664-.043-5.02-.577-1.694-2.172-2.605-3.651-3.338a26.978,26.978,0,0,0-3.339-1.454c-1.527-.512-13.95-4.957-13.95-4.957a1.883,1.883,0,0,1,.773-1.892c2.459-1.53,5.687-.465,8.222-1.825.884-.475,1.653-1.788,2.732-1.824.332-.01,1.118,1.354,1.284,1.576.905,1.216,1.867,2.388,2.735,3.633a2.126,2.126,0,0,1,.337.631c.108.384.058.893.413,1.079.248.13.648.063.732.33.206.652.331.6.884.915a5.546,5.546,0,0,1,1.314,1.524,13.587,13.587,0,0,0,1.606,2.141c.362.191,12.968,2.086,14.177,2.69s3.453-1.3,3.453-1.3,1.209.4,1.368.958.5.546.5.546l1.208-1.208.923-2.508S596.446,317.379,596.081,317.31Z" transform="translate(-533.803 -281.923)" fill="#0b1d39"/>
        </g>
        <g id="Grupo_30" data-name="Grupo 30" transform="translate(52.607 21.937)">
          <path id="Trazado_44" data-name="Trazado 44" d="M565.4,309.736c2.907,2.075,5.818,4.152,8.546,6.456a10.883,10.883,0,0,0,4.059,2.572,8.646,8.646,0,0,0,2.672.159c3-.176,10.168-2.132,10.854-2.34s1.38.286,2.089.175a2.524,2.524,0,0,0,.709-.265q1-.49,1.99-.984a2.123,2.123,0,0,0-1.774-.6c.128-.478.317-1.431.829-1.673.528-.251,1.286.349,1.764.536.163.063.4.086.462-.077.043-.118-.048-.239-.133-.332-.453-.494-.864-1.143-1.539-1.327-.719-.2-1.25.294-1.947.266-.65-.025-1.259-.41-1.951-.387a2.037,2.037,0,0,0-1.71.886c-.171.288-.258.651-.538.836a1.284,1.284,0,0,1-.537.159q-3.381.473-6.8.67c-1.581.091-3.344.074-4.507-1a8.212,8.212,0,0,1-.771-.893c-2.239-2.779-5.56-4.539-7.739-7.366" transform="translate(-565.402 -305.211)" fill="#0b1d39"/>
        </g>
      </g>
      <g id="Grupo_55" data-name="Grupo 55">
        <path id="Unión_1" data-name="Unión 1" d="M-443.771,39.1l-.425-6.186A5,5,0,0,1-448.266,28V5a5,5,0,0,1,5-5h95a5,5,0,0,1,5,5V28a5,5,0,0,1-5,5h-87.746l-6.018,6.7a.979.979,0,0,1-.737.334A1,1,0,0,1-443.771,39.1Z" transform="translate(531.266 110.191)" fill="#fff"/>
        <text id="Datos_personales" data-name="Datos personales" transform="translate(96 130.191)" fill="#0b1d39" font-size="9" font-family="Poppins-SemiBold, Poppins" font-weight="600"><tspan x="0" y="0">Datos personales</tspan></text>
      </g>
    </g>
  </g>
</svg>
